# Blender v2.74 (sub 0) OBJ File: ''
# www.blender.org
mtllib letras.mtl
o I
v -0.290700 0.000000 0.000000
v -0.429700 0.000000 0.000000
v -0.429700 1.013000 0.000000
v -0.290700 1.013000 0.000000
v -0.290700 0.000000 0.100000
v -0.429700 0.000000 0.100000
v -0.429700 1.013000 0.100000
v -0.290700 1.013000 0.100000
vt 0.041000 1.013000
vt 0.180000 1.013000
vt 0.180000 0.000000
vt 0.041000 0.000000
vt 0.180000 1.000000
vt 0.041000 1.000000
vt 0.180000 0.900000
vt 0.041000 0.900000
vt 1.013000 1.000000
vt 0.000000 1.000000
vt 1.013000 0.900000
vt 0.000000 0.900000
vn 0.000000 0.000000 -1.000000
vn 0.000000 0.000000 1.000000
vn 0.000000 1.000000 0.000000
vn -1.000000 0.000000 0.000000
vn 0.000000 -1.000000 0.000000
vn 1.000000 0.000000 0.000000
usemtl 63ba3b
s 1
f 3/1/1 4/2/1 1/3/1
f 1/3/1 2/4/1 3/1/1
f 5/3/2 8/2/2 7/1/2
f 7/1/2 6/4/2 5/3/2
f 4/5/3 3/6/3 8/7/3
f 3/6/3 7/8/3 8/7/3
f 3/9/4 2/10/4 7/11/4
f 2/10/4 6/12/4 7/11/4
f 2/6/5 1/5/5 6/8/5
f 1/5/5 5/7/5 6/8/5
f 1/10/6 4/9/6 5/12/6
f 4/9/6 8/11/6 5/12/6
