# Blender v2.74 (sub 0) OBJ File: ''
# www.blender.org
mtllib letras.mtl
o R
v 0.310300 0.000000 0.000000
v 0.152300 0.000000 0.000000
v 0.126800 0.086500 0.000000
v 0.116300 0.242000 0.000000
v 0.070300 0.385250 0.000000
v -0.063700 0.433000 0.000000
v -0.332700 0.433000 0.000000
v -0.332700 0.000000 0.000000
v -0.470700 0.000000 0.000000
v -0.470700 1.013000 0.000000
v -0.074700 1.013000 0.000000
v 0.056800 0.996250 0.000000
v 0.165300 0.946000 0.000000
v 0.250050 0.853250 0.000000
v 0.278300 0.731000 0.000000
v 0.268800 0.661500 0.000000
v 0.240300 0.597000 0.000000
v 0.196050 0.541750 0.000000
v 0.137300 0.502000 0.000000
v 0.208800 0.455000 0.000000
v 0.247300 0.370000 0.000000
v 0.252050 0.320250 0.000000
v 0.258300 0.207000 0.000000
v 0.274800 0.089250 0.000000
v 0.310300 0.026000 0.000000
v -0.097700 0.551000 0.000000
v -0.011700 0.561750 0.000000
v 0.062300 0.594000 0.000000
v 0.123050 0.653750 0.000000
v 0.143300 0.731000 0.000000
v 0.122800 0.805000 0.000000
v 0.061300 0.859000 0.000000
v -0.011950 0.886750 0.000000
v -0.097700 0.896000 0.000000
v -0.332700 0.896000 0.000000
v -0.332700 0.551000 0.000000
v 0.310300 0.000000 0.100000
v 0.152300 0.000000 0.100000
v 0.126800 0.086500 0.100000
v 0.116300 0.242000 0.100000
v 0.070300 0.385250 0.100000
v -0.063700 0.433000 0.100000
v -0.332700 0.433000 0.100000
v -0.332700 0.000000 0.100000
v -0.470700 0.000000 0.100000
v -0.470700 1.013000 0.100000
v -0.074700 1.013000 0.100000
v 0.056800 0.996250 0.100000
v 0.165300 0.946000 0.100000
v 0.250050 0.853250 0.100000
v 0.278300 0.731000 0.100000
v 0.268800 0.661500 0.100000
v 0.240300 0.597000 0.100000
v 0.196050 0.541750 0.100000
v 0.137300 0.502000 0.100000
v 0.208800 0.455000 0.100000
v 0.247300 0.370000 0.100000
v 0.252050 0.320250 0.100000
v 0.258300 0.207000 0.100000
v 0.274800 0.089250 0.100000
v 0.310300 0.026000 0.100000
v -0.097700 0.551000 0.100000
v -0.011700 0.561750 0.100000
v 0.062300 0.594000 0.100000
v 0.123050 0.653750 0.100000
v 0.143300 0.731000 0.100000
v 0.122800 0.805000 0.100000
v 0.061300 0.859000 0.100000
v -0.011950 0.886750 0.100000
v -0.097700 0.896000 0.100000
v -0.332700 0.896000 0.100000
v -0.332700 0.551000 0.100000
vt 0.745500 0.089250
vt 0.781000 0.026000
vt 0.781000 0.000000
vt 0.718000 0.370000
vt 0.722750 0.320250
vt 0.729000 0.207000
vt 0.608000 0.502000
vt 0.679500 0.455000
vt 0.711000 0.597000
vt 0.666750 0.541750
vt 0.749000 0.731000
vt 0.739500 0.661500
vt 0.636000 0.946000
vt 0.720750 0.853250
vt 0.396000 1.013000
vt 0.527500 0.996250
vt 0.138000 0.000000
vt 0.000000 0.000000
vt 0.000000 1.013000
vt 0.623000 0.000000
vt 0.597500 0.086500
vt 0.587000 0.242000
vt 0.459000 0.561750
vt 0.533000 0.594000
vt 0.138000 0.433000
vt 0.541000 0.385250
vt 0.593750 0.653750
vt 0.407000 0.433000
vt 0.614000 0.731000
vt 0.373000 0.551000
vt 0.593500 0.805000
vt 0.138000 0.551000
vt 0.532000 0.859000
vt 0.138000 0.896000
vt 0.458750 0.886750
vt 0.373000 0.896000
vt 0.026000 1.000000
vt 0.089250 1.000000
vt 0.026000 0.900000
vt 0.089250 0.900000
vt 0.207000 1.000000
vt 0.207000 0.900000
vt 0.320250 1.000000
vt 0.320250 0.900000
vt 0.370000 1.000000
vt 0.370000 0.900000
vt 0.455000 1.000000
vt 0.455000 0.900000
vt 0.502000 1.000000
vt 0.502000 0.900000
vt 0.541750 1.000000
vt 0.541750 0.900000
vt 0.597000 1.000000
vt 0.597000 0.900000
vt 0.661500 1.000000
vt 0.661500 0.900000
vt 0.731000 1.000000
vt 0.731000 0.900000
vt 0.853250 1.000000
vt 0.853250 0.900000
vt 0.946000 1.000000
vt 0.946000 0.900000
vt 0.996250 1.000000
vt 0.996250 0.900000
vt 1.013000 1.000000
vt 1.013000 0.900000
vt 0.396000 1.000000
vt 0.000000 1.000000
vt 0.396000 0.900000
vt 0.000000 0.900000
vt 0.138000 1.000000
vt 0.138000 0.900000
vt 0.433000 1.000000
vt 0.433000 0.900000
vt 0.407000 1.000000
vt 0.407000 0.900000
vt 0.385250 1.000000
vt 0.385250 0.900000
vt 0.242000 1.000000
vt 0.242000 0.900000
vt 0.086500 1.000000
vt 0.086500 0.900000
vt 0.623000 1.000000
vt 0.781000 1.000000
vt 0.623000 0.900000
vt 0.781000 0.900000
vt 0.551000 1.000000
vt 0.896000 1.000000
vt 0.551000 0.900000
vt 0.896000 0.900000
vt 0.373000 1.000000
vt 0.373000 0.900000
vt 0.458750 1.000000
vt 0.458750 0.900000
vt 0.886750 1.000000
vt 0.859000 1.000000
vt 0.886750 0.900000
vt 0.859000 0.900000
vt 0.805000 1.000000
vt 0.805000 0.900000
vt 0.653750 1.000000
vt 0.653750 0.900000
vt 0.594000 1.000000
vt 0.594000 0.900000
vt 0.561750 1.000000
vt 0.561750 0.900000
vn 0.000000 0.000000 -1.000000
vn -0.000000 0.000000 1.000000
vn 0.985800 0.168000 -0.000000
vn 0.925700 0.378400 0.000000
vn 0.941900 0.336000 0.000000
vn 0.965700 0.259600 0.000000
vn 0.993800 0.111000 0.000000
vn 0.996500 0.083100 0.000000
vn 0.997700 0.068400 -0.000000
vn 0.996700 0.081700 0.000000
vn 0.979100 0.203400 0.000000
vn 0.950600 0.310500 0.000000
vn 0.910900 0.412600 0.000000
vn 0.549300 0.835600 0.000000
vn 0.560400 -0.828200 0.000000
vn 0.640200 -0.768200 -0.000000
vn 0.714300 -0.699800 0.000000
vn 0.831400 -0.555600 -0.000000
vn 0.876500 -0.481400 0.000000
vn 0.948300 -0.317400 0.000000
vn 0.973900 -0.227000 0.000000
vn 0.999900 -0.015500 -0.000000
vn 0.994300 0.106500 0.000000
vn 0.922400 0.386100 0.000000
vn 0.841400 0.540400 -0.000000
vn 0.643400 0.765500 0.000000
vn 0.535600 0.844500 0.000000
vn 0.325700 0.945500 0.000000
vn 0.226700 0.974000 0.000000
vn 0.084400 0.996400 -0.000000
vn 0.042200 0.999100 0.000000
vn 0.000000 1.000000 0.000000
vn -1.000000 0.000000 0.000000
vn 0.000000 -1.000000 0.000000
vn 1.000000 0.000000 0.000000
vn -0.113400 -0.993600 0.000000
vn -0.226700 -0.974000 0.000000
vn -0.335700 -0.942000 0.000000
vn -0.952100 -0.305700 0.000000
vn -0.973700 -0.227800 0.000000
vn -0.989000 -0.147800 0.000000
vn -0.990200 -0.139900 -0.000000
vn -0.977200 -0.212100 0.000000
vn -0.959200 -0.282800 0.000000
vn -0.035800 -0.999400 0.000000
vn -0.071600 -0.997400 0.000000
vn -0.191000 -0.981600 0.000000
vn -0.273900 -0.961800 0.000000
vn -0.462700 -0.886500 0.000000
vn -0.566000 -0.824400 0.000000
vn -0.659800 -0.751400 0.000000
vn -0.963700 -0.267000 0.000000
vn -0.967300 0.253600 0.000000
vn -0.701200 0.713000 0.000000
vn -0.609700 0.792600 0.000000
vn -0.507600 0.861600 0.000000
vn -0.310500 0.950600 0.000000
vn -0.217900 0.976000 0.000000
vn -0.082800 0.996600 0.000000
vn -0.041400 0.999100 0.000000
usemtl 63ba3b
s 1
f 24/1/1 25/2/1 1/3/1
f 21/4/1 22/5/1 23/6/1
f 19/7/1 20/8/1 21/4/1
f 17/9/1 18/10/1 19/7/1
f 15/11/1 16/12/1 17/9/1
f 13/13/1 14/14/1 15/11/1
f 11/15/1 12/16/1 13/13/1
f 8/17/1 9/18/1 10/19/1
f 2/20/1 3/21/1 4/22/1
f 1/3/1 27/23/1 28/24/1
f 19/7/1 21/4/1 23/6/1
f 15/11/1 17/9/1 19/7/1
f 11/15/1 13/13/1 15/11/1
f 7/25/1 8/17/1 10/19/1
f 1/3/1 2/20/1 4/22/1
f 24/1/1 1/3/1 28/24/1
f 19/7/1 23/6/1 24/1/1
f 1/3/1 4/22/1 5/26/1
f 19/7/1 24/1/1 28/24/1
f 27/23/1 1/3/1 5/26/1
f 19/7/1 28/24/1 29/27/1
f 27/23/1 5/26/1 6/28/1
f 19/7/1 29/27/1 30/29/1
f 27/23/1 6/28/1 7/25/1
f 15/11/1 19/7/1 30/29/1
f 26/30/1 27/23/1 7/25/1
f 15/11/1 30/29/1 31/31/1
f 36/32/1 26/30/1 7/25/1
f 15/11/1 31/31/1 32/33/1
f 36/32/1 7/25/1 10/19/1
f 11/15/1 15/11/1 32/33/1
f 35/34/1 36/32/1 10/19/1
f 11/15/1 32/33/1 33/35/1
f 35/34/1 10/19/1 11/15/1
f 11/15/1 33/35/1 34/36/1
f 34/36/1 35/34/1 11/15/1
f 37/3/2 61/2/2 60/1/2
f 59/6/2 58/5/2 57/4/2
f 57/4/2 56/8/2 55/7/2
f 55/7/2 54/10/2 53/9/2
f 53/9/2 52/12/2 51/11/2
f 51/11/2 50/14/2 49/13/2
f 49/13/2 48/16/2 47/15/2
f 46/19/2 45/18/2 44/17/2
f 40/22/2 39/21/2 38/20/2
f 64/24/2 63/23/2 37/3/2
f 59/6/2 57/4/2 55/7/2
f 55/7/2 53/9/2 51/11/2
f 51/11/2 49/13/2 47/15/2
f 46/19/2 44/17/2 43/25/2
f 40/22/2 38/20/2 37/3/2
f 64/24/2 37/3/2 60/1/2
f 60/1/2 59/6/2 55/7/2
f 41/26/2 40/22/2 37/3/2
f 64/24/2 60/1/2 55/7/2
f 41/26/2 37/3/2 63/23/2
f 65/27/2 64/24/2 55/7/2
f 42/28/2 41/26/2 63/23/2
f 66/29/2 65/27/2 55/7/2
f 43/25/2 42/28/2 63/23/2
f 66/29/2 55/7/2 51/11/2
f 43/25/2 63/23/2 62/30/2
f 67/31/2 66/29/2 51/11/2
f 43/25/2 62/30/2 72/32/2
f 68/33/2 67/31/2 51/11/2
f 46/19/2 43/25/2 72/32/2
f 68/33/2 51/11/2 47/15/2
f 46/19/2 72/32/2 71/34/2
f 69/35/2 68/33/2 47/15/2
f 47/15/2 46/19/2 71/34/2
f 70/36/2 69/35/2 47/15/2
f 47/15/2 71/34/2 70/36/2
f 25/37/3 24/38/4 61/39/5
f 24/38/4 60/40/6 61/39/5
f 24/38/4 23/41/7 60/40/6
f 23/41/7 59/42/8 60/40/6
f 23/41/7 22/43/9 59/42/8
f 22/43/9 58/44/10 59/42/8
f 22/43/9 21/45/11 58/44/10
f 21/45/11 57/46/12 58/44/10
f 21/45/11 20/47/13 57/46/12
f 20/47/13 56/48/13 57/46/12
f 20/47/14 19/49/14 56/48/14
f 19/49/14 55/50/14 56/48/14
f 19/49/15 18/51/16 55/50/15
f 18/51/16 54/52/17 55/50/15
f 18/51/16 17/53/18 54/52/17
f 17/53/18 53/54/19 54/52/17
f 17/53/18 16/55/20 53/54/19
f 16/55/20 52/56/21 53/54/19
f 16/55/20 15/57/22 52/56/21
f 15/57/22 51/58/23 52/56/21
f 15/57/22 14/59/24 51/58/23
f 14/59/24 50/60/25 51/58/23
f 14/59/24 13/61/26 50/60/25
f 13/61/26 49/62/27 50/60/25
f 13/61/26 12/63/28 49/62/27
f 12/63/28 48/64/29 49/62/27
f 12/63/28 11/65/30 48/64/29
f 11/65/30 47/66/31 48/64/29
f 11/67/30 10/68/32 47/69/31
f 10/68/32 46/70/32 47/69/31
f 10/65/33 9/68/33 46/66/33
f 9/68/33 45/70/33 46/66/33
f 9/68/34 8/71/34 45/70/34
f 8/71/34 44/72/34 45/70/34
f 8/68/35 7/73/35 44/70/35
f 7/73/35 43/74/35 44/70/35
f 7/71/34 6/75/36 43/72/34
f 6/75/36 42/76/37 43/72/34
f 6/73/36 5/77/38 42/74/37
f 5/77/38 41/78/38 42/74/37
f 5/77/39 4/79/40 41/78/39
f 4/79/40 40/80/41 41/78/39
f 4/79/40 3/81/42 40/80/41
f 3/81/42 39/82/43 40/80/41
f 3/81/42 2/68/44 39/82/43
f 2/68/44 38/70/44 39/82/43
f 2/83/34 1/84/34 38/85/34
f 1/84/34 37/86/34 38/85/34
f 1/68/35 25/37/3 37/70/35
f 25/37/3 61/39/5 37/70/35
f 36/87/35 35/88/35 72/89/35
f 35/88/35 71/90/35 72/89/35
f 35/71/34 34/91/45 71/72/34
f 34/91/45 70/92/46 71/72/34
f 34/91/45 33/93/47 70/92/46
f 33/93/47 69/94/48 70/92/46
f 33/95/47 32/96/49 69/97/48
f 32/96/49 68/98/50 69/97/48
f 32/96/49 31/99/51 68/98/50
f 31/99/51 67/100/51 68/98/50
f 31/99/52 30/57/52 67/100/52
f 30/57/52 66/58/52 67/100/52
f 30/57/53 29/101/53 66/58/53
f 29/101/53 65/102/53 66/58/53
f 29/101/54 28/103/55 65/102/54
f 28/103/55 64/104/56 65/102/54
f 28/103/55 27/105/57 64/104/56
f 27/105/57 63/106/58 64/104/56
f 27/105/57 26/87/59 63/106/58
f 26/87/59 62/89/60 63/106/58
f 26/91/59 36/71/32 62/92/60
f 36/71/32 72/72/32 62/92/60
