# Blender v2.74 (sub 0) OBJ File: ''
# www.blender.org
mtllib letras.mtl
o S
v 0.317300 0.291000 0.000000
v 0.285800 0.158250 0.000000
v 0.191300 0.054000 0.000000
v 0.069050 -0.006000 0.000000
v -0.073700 -0.026000 0.000000
v -0.229450 -0.002500 0.000000
v -0.354700 0.068000 0.000000
v -0.441700 0.185250 0.000000
v -0.470700 0.337000 0.000000
v -0.339700 0.337000 0.000000
v -0.322450 0.232250 0.000000
v -0.270700 0.152000 0.000000
v -0.190200 0.101750 0.000000
v -0.086700 0.085000 0.000000
v 0.004050 0.096000 0.000000
v 0.086300 0.129000 0.000000
v 0.156050 0.191250 0.000000
v 0.179300 0.270000 0.000000
v 0.139300 0.364250 0.000000
v 0.019300 0.429000 0.000000
v -0.129200 0.470500 0.000000
v -0.276700 0.513000 0.000000
v -0.397450 0.605000 0.000000
v -0.437700 0.739000 0.000000
v -0.410450 0.866250 0.000000
v -0.328700 0.964000 0.000000
v -0.217200 1.021750 0.000000
v -0.082700 1.041000 0.000000
v 0.058800 1.020000 0.000000
v 0.173300 0.957000 0.000000
v 0.257300 0.851750 0.000000
v 0.285300 0.716000 0.000000
v 0.154300 0.716000 0.000000
v 0.138300 0.805500 0.000000
v 0.090300 0.874000 0.000000
v 0.016800 0.918250 0.000000
v -0.075700 0.933000 0.000000
v -0.156700 0.922500 0.000000
v -0.227700 0.891000 0.000000
v -0.286950 0.833000 0.000000
v -0.306700 0.759000 0.000000
v -0.266450 0.670000 0.000000
v -0.145700 0.609000 0.000000
v 0.004300 0.567750 0.000000
v 0.154300 0.526000 0.000000
v 0.276550 0.431250 0.000000
v 0.317300 0.291000 0.100000
v 0.285800 0.158250 0.100000
v 0.191300 0.054000 0.100000
v 0.069050 -0.006000 0.100000
v -0.073700 -0.026000 0.100000
v -0.229450 -0.002500 0.100000
v -0.354700 0.068000 0.100000
v -0.441700 0.185250 0.100000
v -0.470700 0.337000 0.100000
v -0.339700 0.337000 0.100000
v -0.322450 0.232250 0.100000
v -0.270700 0.152000 0.100000
v -0.190200 0.101750 0.100000
v -0.086700 0.085000 0.100000
v 0.004050 0.096000 0.100000
v 0.086300 0.129000 0.100000
v 0.156050 0.191250 0.100000
v 0.179300 0.270000 0.100000
v 0.139300 0.364250 0.100000
v 0.019300 0.429000 0.100000
v -0.129200 0.470500 0.100000
v -0.276700 0.513000 0.100000
v -0.397450 0.605000 0.100000
v -0.437700 0.739000 0.100000
v -0.410450 0.866250 0.100000
v -0.328700 0.964000 0.100000
v -0.217200 1.021750 0.100000
v -0.082700 1.041000 0.100000
v 0.058800 1.020000 0.100000
v 0.173300 0.957000 0.100000
v 0.257300 0.851750 0.100000
v 0.285300 0.716000 0.100000
v 0.154300 0.716000 0.100000
v 0.138300 0.805500 0.100000
v 0.090300 0.874000 0.100000
v 0.016800 0.918250 0.100000
v -0.075700 0.933000 0.100000
v -0.156700 0.922500 0.100000
v -0.227700 0.891000 0.100000
v -0.286950 0.833000 0.100000
v -0.306700 0.759000 0.100000
v -0.266450 0.670000 0.100000
v -0.145700 0.609000 0.100000
v 0.004300 0.567750 0.100000
v 0.154300 0.526000 0.100000
v 0.276550 0.431250 0.100000
vt 0.625000 0.526000
vt 0.747250 0.431250
vt 0.788000 0.291000
vt 0.325000 0.609000
vt 0.475000 0.567750
vt 0.756000 0.716000
vt 0.625000 0.716000
vt 0.609000 0.805500
vt 0.644000 0.957000
vt 0.728000 0.851750
vt 0.388000 1.041000
vt 0.529500 1.020000
vt 0.142000 0.964000
vt 0.253500 1.021750
vt 0.033000 0.739000
vt 0.060250 0.866250
vt 0.194000 0.513000
vt 0.073250 0.605000
vt 0.490000 0.429000
vt 0.341500 0.470500
vt 0.000000 0.337000
vt 0.131000 0.337000
vt 0.148250 0.232250
vt 0.116000 0.068000
vt 0.029000 0.185250
vt 0.397000 -0.026000
vt 0.241250 -0.002500
vt 0.662000 0.054000
vt 0.539750 -0.006000
vt 0.756500 0.158250
vt 0.561000 0.874000
vt 0.200000 0.152000
vt 0.204250 0.670000
vt 0.610000 0.364250
vt 0.487500 0.918250
vt 0.280500 0.101750
vt 0.395000 0.933000
vt 0.384000 0.085000
vt 0.314000 0.922500
vt 0.243000 0.891000
vt 0.474750 0.096000
vt 0.183750 0.833000
vt 0.557000 0.129000
vt 0.626750 0.191250
vt 0.164000 0.759000
vt 0.650000 0.270000
vt 0.431250 1.000000
vt 0.526000 1.000000
vt 0.431250 0.900000
vt 0.526000 0.900000
vt 0.567750 1.000000
vt 0.567750 0.900000
vt 0.609000 1.000000
vt 0.609000 0.900000
vt 0.670000 1.000000
vt 0.670000 0.900000
vt 0.759000 1.000000
vt 0.759000 0.900000
vt 0.833000 1.000000
vt 0.833000 0.900000
vt 0.891000 1.000000
vt 0.891000 0.900000
vt 0.922500 1.000000
vt 0.922500 0.900000
vt 0.933000 1.000000
vt 0.933000 0.900000
vt 0.918250 1.000000
vt 0.918250 0.900000
vt 0.874000 1.000000
vt 0.874000 0.900000
vt 0.805500 1.000000
vt 0.805500 0.900000
vt 0.716000 1.000000
vt 0.716000 0.900000
vt 0.625000 1.000000
vt 0.756000 1.000000
vt 0.625000 0.900000
vt 0.756000 0.900000
vt 0.851750 1.000000
vt 0.851750 0.900000
vt 0.957000 1.000000
vt 0.957000 0.900000
vt 1.020000 1.000000
vt 1.020000 0.900000
vt 1.041000 1.000000
vt 1.041000 0.900000
vt 1.021750 1.000000
vt 1.021750 0.900000
vt 0.964000 1.000000
vt 0.964000 0.900000
vt 0.866250 1.000000
vt 0.866250 0.900000
vt 0.739000 1.000000
vt 0.739000 0.900000
vt 0.605000 1.000000
vt 0.605000 0.900000
vt 0.513000 1.000000
vt 0.513000 0.900000
vt 0.470500 1.000000
vt 0.470500 0.900000
vt 0.429000 1.000000
vt 0.429000 0.900000
vt 0.364250 1.000000
vt 0.364250 0.900000
vt 0.270000 1.000000
vt 0.270000 0.900000
vt 0.191250 1.000000
vt 0.191250 0.900000
vt 0.129000 1.000000
vt 0.129000 0.900000
vt 0.096000 1.000000
vt 0.096000 0.900000
vt 0.085000 1.000000
vt 0.085000 0.900000
vt 0.101750 1.000000
vt 0.101750 0.900000
vt 0.152000 1.000000
vt 0.152000 0.900000
vt 0.232250 1.000000
vt 0.232250 0.900000
vt 0.337000 1.000000
vt 0.337000 0.900000
vt 0.131000 1.000000
vt 0.000000 1.000000
vt 0.131000 0.900000
vt 0.000000 0.900000
vt 0.185250 1.000000
vt 0.185250 0.900000
vt 0.068000 1.000000
vt 0.068000 0.900000
vt -0.002500 1.000000
vt -0.002500 0.900000
vt -0.026000 1.000000
vt -0.026000 0.900000
vt -0.006000 1.000000
vt -0.006000 0.900000
vt 0.054000 1.000000
vt 0.054000 0.900000
vt 0.158250 1.000000
vt 0.158250 0.900000
vt 0.291000 1.000000
vt 0.291000 0.900000
vn 0.000000 0.000000 -1.000000
vn -0.000000 0.000000 1.000000
vn 0.612600 0.790400 0.000000
vn 0.506200 0.862400 -0.000000
vn 0.389400 0.921100 0.000000
vn 0.267100 0.963700 -0.000000
vn 0.266200 0.963900 0.000000
vn 0.328500 0.944500 0.000000
vn 0.390700 0.920500 0.000000
vn 0.450900 0.892600 0.000000
vn 0.911200 0.412100 0.000000
vn 0.966200 -0.257900 0.000000
vn 0.699500 -0.714600 0.000000
vn 0.610100 -0.792300 0.000000
vn 0.510800 -0.859700 0.000000
vn 0.316100 -0.948700 0.000000
vn 0.222900 -0.974800 0.000000
vn 0.033500 -0.999400 0.000000
vn -0.062700 -0.998000 0.000000
vn -0.281500 -0.959600 0.000000
vn -0.402900 -0.915200 0.000000
vn -0.629000 -0.777400 0.000000
vn -0.732000 -0.681300 0.000000
vn -0.892700 -0.450600 0.000000
vn -0.949000 -0.315200 0.000000
vn -0.984400 -0.176000 0.000000
vn 0.000000 -1.000000 0.000000
vn 0.979400 0.202000 0.000000
vn 0.936300 0.351200 0.000000
vn 0.868700 0.495300 -0.000000
vn 0.693700 0.720300 0.000000
vn 0.592100 0.805900 0.000000
vn 0.375600 0.926800 -0.000000
vn 0.262200 0.965000 -0.000000
vn 0.051100 0.998700 0.000000
vn -0.045900 0.998900 -0.000000
vn -0.250900 0.968000 -0.000000
vn -0.358300 0.933600 0.000000
vn -0.572300 0.820100 -0.000000
vn -0.676500 0.736500 -0.000000
vn -0.859700 0.510800 0.000000
vn -0.931800 0.362900 -0.000000
vn -0.999000 0.044900 -0.000000
vn -0.992100 -0.125500 -0.000000
vn -0.957700 -0.287700 0.000000
vn -0.606000 -0.795400 0.000000
vn -0.504000 -0.863700 -0.000000
vn -0.392600 -0.919700 0.000000
vn -0.274300 -0.961600 -0.000000
vn -0.271700 -0.962400 -0.000000
vn -0.339600 -0.940600 0.000000
vn -0.408500 -0.912700 0.000000
vn -0.474900 -0.880100 0.000000
vn -0.920500 -0.390700 0.000000
vn -0.959100 0.283200 0.000000
vn -0.665900 0.746100 0.000000
vn -0.575700 0.817700 0.000000
vn -0.476600 0.879100 0.000000
vn -0.290500 0.956900 0.000000
vn -0.205900 0.978600 0.000000
vn -0.027200 0.999600 0.000000
vn 0.067000 0.997800 0.000000
vn 0.288100 0.957600 0.000000
vn 0.413500 0.910500 0.000000
vn 0.647000 0.762500 0.000000
vn 0.752900 0.658200 0.000000
vn 0.906000 0.423300 0.000000
vn 0.955700 0.294500 0.000000
vn 0.986700 0.162500 0.000000
vn 0.000000 1.000000 0.000000
vn -0.982200 -0.187700 0.000000
vn -0.943600 -0.331200 0.000000
vn -0.882500 -0.470300 0.000000
vn -0.712800 -0.701400 -0.000000
vn -0.606500 -0.795100 0.000000
vn -0.382300 -0.924000 -0.000000
vn -0.266900 -0.963700 -0.000000
vn -0.053700 -0.998600 -0.000000
vn 0.043200 -0.999100 -0.000000
vn 0.242100 -0.970300 -0.000000
vn 0.343800 -0.939000 -0.000000
vn 0.549400 -0.835600 0.000000
vn 0.651100 -0.759000 0.000000
vn 0.841800 -0.539800 -0.000000
vn 0.921400 -0.388600 0.000000
vn 0.998000 -0.062700 0.000000
vn 0.993700 0.112300 -0.000000
vn 0.960300 0.279000 0.000000
usemtl 63ba3b
s 1
f 45/1/1 46/2/1 1/3/1
f 43/4/1 44/5/1 45/1/1
f 32/6/1 33/7/1 34/8/1
f 30/9/1 31/10/1 32/6/1
f 28/11/1 29/12/1 30/9/1
f 26/13/1 27/14/1 28/11/1
f 24/15/1 25/16/1 26/13/1
f 22/17/1 23/18/1 24/15/1
f 20/19/1 21/20/1 22/17/1
f 9/21/1 10/22/1 11/23/1
f 7/24/1 8/25/1 9/21/1
f 5/26/1 6/27/1 7/24/1
f 3/28/1 4/29/1 5/26/1
f 1/3/1 2/30/1 3/28/1
f 43/4/1 45/1/1 1/3/1
f 32/6/1 34/8/1 35/31/1
f 28/11/1 30/9/1 32/6/1
f 24/15/1 26/13/1 28/11/1
f 20/19/1 22/17/1 24/15/1
f 9/21/1 11/23/1 12/32/1
f 3/28/1 5/26/1 7/24/1
f 42/33/1 43/4/1 1/3/1
f 28/11/1 32/6/1 35/31/1
f 19/34/1 20/19/1 24/15/1
f 7/24/1 9/21/1 12/32/1
f 28/11/1 35/31/1 36/35/1
f 7/24/1 12/32/1 13/36/1
f 28/11/1 36/35/1 37/37/1
f 7/24/1 13/36/1 14/38/1
f 28/11/1 37/37/1 38/39/1
f 3/28/1 7/24/1 14/38/1
f 28/11/1 38/39/1 39/40/1
f 3/28/1 14/38/1 15/41/1
f 28/11/1 39/40/1 40/42/1
f 3/28/1 15/41/1 16/43/1
f 24/15/1 28/11/1 40/42/1
f 3/28/1 16/43/1 17/44/1
f 24/15/1 40/42/1 41/45/1
f 3/28/1 17/44/1 18/46/1
f 24/15/1 41/45/1 42/33/1
f 1/3/1 3/28/1 18/46/1
f 24/15/1 42/33/1 1/3/1
f 1/3/1 18/46/1 19/34/1
f 19/34/1 24/15/1 1/3/1
f 47/3/2 92/2/2 91/1/2
f 91/1/2 90/5/2 89/4/2
f 80/8/2 79/7/2 78/6/2
f 78/6/2 77/10/2 76/9/2
f 76/9/2 75/12/2 74/11/2
f 74/11/2 73/14/2 72/13/2
f 72/13/2 71/16/2 70/15/2
f 70/15/2 69/18/2 68/17/2
f 68/17/2 67/20/2 66/19/2
f 57/23/2 56/22/2 55/21/2
f 55/21/2 54/25/2 53/24/2
f 53/24/2 52/27/2 51/26/2
f 51/26/2 50/29/2 49/28/2
f 49/28/2 48/30/2 47/3/2
f 47/3/2 91/1/2 89/4/2
f 81/31/2 80/8/2 78/6/2
f 78/6/2 76/9/2 74/11/2
f 74/11/2 72/13/2 70/15/2
f 70/15/2 68/17/2 66/19/2
f 58/32/2 57/23/2 55/21/2
f 53/24/2 51/26/2 49/28/2
f 47/3/2 89/4/2 88/33/2
f 81/31/2 78/6/2 74/11/2
f 70/15/2 66/19/2 65/34/2
f 58/32/2 55/21/2 53/24/2
f 82/35/2 81/31/2 74/11/2
f 59/36/2 58/32/2 53/24/2
f 83/37/2 82/35/2 74/11/2
f 60/38/2 59/36/2 53/24/2
f 84/39/2 83/37/2 74/11/2
f 60/38/2 53/24/2 49/28/2
f 85/40/2 84/39/2 74/11/2
f 61/41/2 60/38/2 49/28/2
f 86/42/2 85/40/2 74/11/2
f 62/43/2 61/41/2 49/28/2
f 86/42/2 74/11/2 70/15/2
f 63/44/2 62/43/2 49/28/2
f 87/45/2 86/42/2 70/15/2
f 64/46/2 63/44/2 49/28/2
f 88/33/2 87/45/2 70/15/2
f 64/46/2 49/28/2 47/3/2
f 47/3/2 88/33/2 70/15/2
f 65/34/2 64/46/2 47/3/2
f 47/3/2 70/15/2 65/34/2
f 46/47/3 45/48/4 92/49/3
f 45/48/4 91/50/5 92/49/3
f 45/48/4 44/51/6 91/50/5
f 44/51/6 90/52/7 91/50/5
f 44/51/6 43/53/8 90/52/7
f 43/53/8 89/54/9 90/52/7
f 43/53/8 42/55/10 89/54/9
f 42/55/10 88/56/10 89/54/9
f 42/55/11 41/57/11 88/56/11
f 41/57/11 87/58/11 88/56/11
f 41/57/12 40/59/12 87/58/12
f 40/59/12 86/60/12 87/58/12
f 40/59/13 39/61/14 86/60/13
f 39/61/14 85/62/15 86/60/13
f 39/61/14 38/63/16 85/62/15
f 38/63/16 84/64/17 85/62/15
f 38/63/16 37/65/18 84/64/17
f 37/65/18 83/66/19 84/64/17
f 37/65/18 36/67/20 83/66/19
f 36/67/20 82/68/21 83/66/19
f 36/67/20 35/69/22 82/68/21
f 35/69/22 81/70/23 82/68/21
f 35/69/22 34/71/24 81/70/23
f 34/71/24 80/72/25 81/70/23
f 34/71/24 33/73/26 80/72/25
f 33/73/26 79/74/26 80/72/25
f 33/75/27 32/76/27 79/77/27
f 32/76/27 78/78/27 79/77/27
f 32/73/28 31/79/29 78/74/28
f 31/79/29 77/80/30 78/74/28
f 31/79/29 30/81/31 77/80/30
f 30/81/31 76/82/32 77/80/30
f 30/81/31 29/83/33 76/82/32
f 29/83/33 75/84/34 76/82/32
f 29/83/33 28/85/35 75/84/34
f 28/85/35 74/86/36 75/84/34
f 28/85/35 27/87/37 74/86/36
f 27/87/37 73/88/38 74/86/36
f 27/87/37 26/89/39 73/88/38
f 26/89/39 72/90/40 73/88/38
f 26/89/39 25/91/41 72/90/40
f 25/91/41 71/92/42 72/90/40
f 25/91/41 24/93/43 71/92/42
f 24/93/43 70/94/44 71/92/42
f 24/93/43 23/95/45 70/94/44
f 23/95/45 69/96/45 70/94/44
f 23/95/46 22/97/47 69/96/46
f 22/97/47 68/98/48 69/96/46
f 22/97/47 21/99/49 68/98/48
f 21/99/49 67/100/50 68/98/48
f 21/99/49 20/101/51 67/100/50
f 20/101/51 66/102/52 67/100/50
f 20/101/51 19/103/53 66/102/52
f 19/103/53 65/104/53 66/102/52
f 19/103/54 18/105/54 65/104/54
f 18/105/54 64/106/54 65/104/54
f 18/105/55 17/107/55 64/106/55
f 17/107/55 63/108/55 64/106/55
f 17/107/56 16/109/57 63/108/56
f 16/109/57 62/110/58 63/108/56
f 16/109/57 15/111/59 62/110/58
f 15/111/59 61/112/60 62/110/58
f 15/111/59 14/113/61 61/112/60
f 14/113/61 60/114/62 61/112/60
f 14/113/61 13/115/63 60/114/62
f 13/115/63 59/116/64 60/114/62
f 13/115/63 12/117/65 59/116/64
f 12/117/65 58/118/66 59/116/64
f 12/117/65 11/119/67 58/118/66
f 11/119/67 57/120/68 58/118/66
f 11/119/67 10/121/69 57/120/68
f 10/121/69 56/122/69 57/120/68
f 10/123/70 9/124/70 56/125/70
f 9/124/70 55/126/70 56/125/70
f 9/121/71 8/127/72 55/122/71
f 8/127/72 54/128/73 55/122/71
f 8/127/72 7/129/74 54/128/73
f 7/129/74 53/130/75 54/128/73
f 7/129/74 6/131/76 53/130/75
f 6/131/76 52/132/77 53/130/75
f 6/131/76 5/133/78 52/132/77
f 5/133/78 51/134/79 52/132/77
f 5/133/78 4/135/80 51/134/79
f 4/135/80 50/136/81 51/134/79
f 4/135/80 3/137/82 50/136/81
f 3/137/82 49/138/83 50/136/81
f 3/137/82 2/139/84 49/138/83
f 2/139/84 48/140/85 49/138/83
f 2/139/84 1/141/86 48/140/85
f 1/141/86 47/142/87 48/140/85
f 1/141/86 46/47/88 47/142/87
f 46/47/88 92/49/88 47/142/87
