# Blender v2.74 (sub 0) OBJ File: ''
# www.blender.org
mtllib letras.mtl
o P
v -0.046700 1.013000 0.000000
v 0.072800 0.992500 0.000000
v 0.169300 0.931000 0.000000
v 0.233800 0.837500 0.000000
v 0.255300 0.719000 0.000000
v 0.233050 0.599750 0.000000
v 0.166300 0.506000 0.000000
v 0.065800 0.446000 0.000000
v -0.057700 0.426000 0.000000
v -0.330700 0.426000 0.000000
v -0.330700 0.000000 0.000000
v -0.470700 0.000000 0.000000
v -0.470700 1.013000 0.000000
v -0.091700 0.889000 0.000000
v -0.330700 0.889000 0.000000
v -0.330700 0.548000 0.000000
v -0.098700 0.548000 0.000000
v -0.017700 0.558250 0.000000
v 0.051300 0.589000 0.000000
v 0.104550 0.645750 0.000000
v 0.122300 0.720000 0.000000
v 0.106050 0.791750 0.000000
v 0.057300 0.845000 0.000000
v -0.012450 0.878000 0.000000
v -0.046700 1.013000 0.100000
v 0.072800 0.992500 0.100000
v 0.169300 0.931000 0.100000
v 0.233800 0.837500 0.100000
v 0.255300 0.719000 0.100000
v 0.233050 0.599750 0.100000
v 0.166300 0.506000 0.100000
v 0.065800 0.446000 0.100000
v -0.057700 0.426000 0.100000
v -0.330700 0.426000 0.100000
v -0.330700 0.000000 0.100000
v -0.470700 0.000000 0.100000
v -0.470700 1.013000 0.100000
v -0.091700 0.889000 0.100000
v -0.330700 0.889000 0.100000
v -0.330700 0.548000 0.100000
v -0.098700 0.548000 0.100000
v -0.017700 0.558250 0.100000
v 0.051300 0.589000 0.100000
v 0.104550 0.645750 0.100000
v 0.122300 0.720000 0.100000
v 0.106050 0.791750 0.100000
v 0.057300 0.845000 0.100000
v -0.012450 0.878000 0.100000
vt 0.140000 0.000000
vt 0.000000 0.000000
vt 0.000000 1.013000
vt 0.536500 0.446000
vt 0.413000 0.426000
vt 0.140000 0.426000
vt 0.703750 0.599750
vt 0.637000 0.506000
vt 0.704500 0.837500
vt 0.726000 0.719000
vt 0.543500 0.992500
vt 0.640000 0.931000
vt 0.140000 0.889000
vt 0.424000 1.013000
vt 0.379000 0.889000
vt 0.140000 0.548000
vt 0.458250 0.878000
vt 0.528000 0.845000
vt 0.372000 0.548000
vt 0.576750 0.791750
vt 0.453000 0.558250
vt 0.593000 0.720000
vt 0.522000 0.589000
vt 0.575250 0.645750
vt 1.013000 1.000000
vt 0.000000 1.000000
vt 1.013000 0.900000
vt 0.000000 0.900000
vt 0.140000 1.000000
vt 0.140000 0.900000
vt 0.426000 1.000000
vt 0.426000 0.900000
vt 0.413000 1.000000
vt 0.413000 0.900000
vt 0.446000 1.000000
vt 0.446000 0.900000
vt 0.506000 1.000000
vt 0.506000 0.900000
vt 0.599750 1.000000
vt 0.599750 0.900000
vt 0.719000 1.000000
vt 0.719000 0.900000
vt 0.837500 1.000000
vt 0.837500 0.900000
vt 0.931000 1.000000
vt 0.931000 0.900000
vt 0.992500 1.000000
vt 0.992500 0.900000
vt 0.424000 1.000000
vt 0.424000 0.900000
vt 0.878000 1.000000
vt 0.845000 1.000000
vt 0.878000 0.900000
vt 0.845000 0.900000
vt 0.791750 1.000000
vt 0.791750 0.900000
vt 0.720000 1.000000
vt 0.720000 0.900000
vt 0.645750 1.000000
vt 0.645750 0.900000
vt 0.589000 1.000000
vt 0.589000 0.900000
vt 0.558250 1.000000
vt 0.558250 0.900000
vt 0.548000 1.000000
vt 0.548000 0.900000
vt 0.372000 1.000000
vt 0.372000 0.900000
vt 0.889000 1.000000
vt 0.889000 0.900000
vt 0.379000 1.000000
vt 0.379000 0.900000
vn 0.000000 0.000000 -1.000000
vn -0.000000 0.000000 1.000000
vn -1.000000 0.000000 0.000000
vn 0.000000 -1.000000 0.000000
vn 1.000000 0.000000 0.000000
vn 0.053400 -0.998600 0.000000
vn 0.106900 -0.994300 -0.000000
vn 0.281900 -0.959400 -0.000000
vn 0.401400 -0.915900 0.000000
vn 0.625100 -0.780500 -0.000000
vn 0.727700 -0.685900 0.000000
vn 0.889300 -0.457300 0.000000
vn 0.946600 -0.322300 0.000000
vn 0.998000 -0.063700 0.000000
vn 0.998300 0.058700 -0.000000
vn 0.949200 0.314500 -0.000000
vn 0.894600 0.446900 0.000000
vn 0.741000 0.671500 -0.000000
vn 0.644000 0.765000 0.000000
vn 0.422000 0.906600 -0.000000
vn 0.297000 0.954900 0.000000
vn 0.113100 0.993600 0.000000
vn 0.056500 0.998400 -0.000000
vn 0.000000 1.000000 0.000000
vn -0.236600 -0.971600 0.000000
vn -0.539900 -0.841700 0.000000
vn -0.334400 -0.942400 0.000000
vn -0.645000 -0.764200 0.000000
vn -0.841800 -0.539800 0.000000
vn -0.923500 -0.383700 0.000000
vn -0.997400 -0.071400 0.000000
vn -0.996500 0.083300 0.000000
vn -0.918800 0.394800 0.000000
vn -0.835200 0.550000 0.000000
vn -0.632900 0.774200 0.000000
vn -0.523600 0.852000 0.000000
vn -0.316200 0.948700 0.000000
vn -0.221500 0.975200 0.000000
vn -0.083800 0.996500 0.000000
vn -0.041900 0.999100 0.000000
vn -0.045900 -0.998900 0.000000
vn -0.091800 -0.995800 0.000000
usemtl 63ba3b
s 1
f 11/1/1 12/2/1 13/3/1
f 8/4/1 9/5/1 10/6/1
f 6/7/1 7/8/1 8/4/1
f 4/9/1 5/10/1 6/7/1
f 2/11/1 3/12/1 4/9/1
f 15/13/1 1/14/1 2/11/1
f 13/3/1 1/14/1 15/13/1
f 10/6/1 11/1/1 13/3/1
f 6/7/1 8/4/1 10/6/1
f 2/11/1 4/9/1 6/7/1
f 14/15/1 15/13/1 2/11/1
f 13/3/1 15/13/1 16/16/1
f 24/17/1 14/15/1 2/11/1
f 10/6/1 13/3/1 16/16/1
f 23/18/1 24/17/1 2/11/1
f 10/6/1 16/16/1 17/19/1
f 22/20/1 23/18/1 2/11/1
f 10/6/1 17/19/1 18/21/1
f 22/20/1 2/11/1 6/7/1
f 6/7/1 10/6/1 18/21/1
f 21/22/1 22/20/1 6/7/1
f 6/7/1 18/21/1 19/23/1
f 20/24/1 21/22/1 6/7/1
f 6/7/1 19/23/1 20/24/1
f 37/3/2 36/2/2 35/1/2
f 34/6/2 33/5/2 32/4/2
f 32/4/2 31/8/2 30/7/2
f 30/7/2 29/10/2 28/9/2
f 28/9/2 27/12/2 26/11/2
f 26/11/2 25/14/2 39/13/2
f 39/13/2 25/14/2 37/3/2
f 37/3/2 35/1/2 34/6/2
f 34/6/2 32/4/2 30/7/2
f 30/7/2 28/9/2 26/11/2
f 26/11/2 39/13/2 38/15/2
f 40/16/2 39/13/2 37/3/2
f 26/11/2 38/15/2 48/17/2
f 40/16/2 37/3/2 34/6/2
f 26/11/2 48/17/2 47/18/2
f 41/19/2 40/16/2 34/6/2
f 26/11/2 47/18/2 46/20/2
f 42/21/2 41/19/2 34/6/2
f 30/7/2 26/11/2 46/20/2
f 42/21/2 34/6/2 30/7/2
f 30/7/2 46/20/2 45/22/2
f 43/23/2 42/21/2 30/7/2
f 30/7/2 45/22/2 44/24/2
f 44/24/2 43/23/2 30/7/2
f 13/25/3 12/26/3 37/27/3
f 12/26/3 36/28/3 37/27/3
f 12/26/4 11/29/4 36/28/4
f 11/29/4 35/30/4 36/28/4
f 11/26/5 10/31/5 35/28/5
f 10/31/5 34/32/5 35/28/5
f 10/29/4 9/33/6 34/30/4
f 9/33/6 33/34/7 34/30/4
f 9/31/6 8/35/8 33/32/7
f 8/35/8 32/36/9 33/32/7
f 8/35/8 7/37/10 32/36/9
f 7/37/10 31/38/11 32/36/9
f 7/37/10 6/39/12 31/38/11
f 6/39/12 30/40/13 31/38/11
f 6/39/12 5/41/14 30/40/13
f 5/41/14 29/42/15 30/40/13
f 5/41/14 4/43/16 29/42/15
f 4/43/16 28/44/17 29/42/15
f 4/43/16 3/45/18 28/44/17
f 3/45/18 27/46/19 28/44/17
f 3/45/18 2/47/20 27/46/19
f 2/47/20 26/48/21 27/46/19
f 2/47/20 1/25/22 26/48/21
f 1/25/22 25/27/23 26/48/21
f 1/49/22 13/26/24 25/50/23
f 13/26/24 37/28/24 25/50/23
f 24/51/25 23/52/26 48/53/27
f 23/52/26 47/54/28 48/53/27
f 23/52/26 22/55/29 47/54/28
f 22/55/29 46/56/30 47/54/28
f 22/55/29 21/57/31 46/56/30
f 21/57/31 45/58/32 46/56/30
f 21/57/31 20/59/33 45/58/32
f 20/59/33 44/60/34 45/58/32
f 20/59/33 19/61/35 44/60/34
f 19/61/35 43/62/36 44/60/34
f 19/61/35 18/63/37 43/62/36
f 18/63/37 42/64/38 43/62/36
f 18/63/37 17/65/39 42/64/38
f 17/65/39 41/66/40 42/64/38
f 17/67/39 16/29/24 41/68/40
f 16/29/24 40/30/24 41/68/40
f 16/65/5 15/69/5 40/66/5
f 15/69/5 39/70/5 40/66/5
f 15/29/4 14/71/41 39/30/4
f 14/71/41 38/72/42 39/30/4
f 14/69/41 24/51/25 38/70/42
f 24/51/25 48/53/27 38/70/42
