# Blender v2.74 (sub 0) OBJ File: ''
# www.blender.org
mtllib letras.mtl
o D
v -0.081700 1.013000 0.000000
v 0.101550 0.976500 0.000000
v 0.243300 0.867000 0.000000
v 0.328800 0.711500 0.000000
v 0.357300 0.521000 0.000000
v 0.328300 0.325000 0.000000
v 0.241300 0.161000 0.000000
v 0.096300 0.040250 0.000000
v -0.088700 0.000000 0.000000
v -0.470700 0.000000 0.000000
v -0.470700 1.013000 0.000000
v -0.094700 0.124000 0.000000
v 0.036550 0.154750 0.000000
v 0.136300 0.247000 0.000000
v 0.191800 0.366750 0.000000
v 0.210300 0.510000 0.000000
v 0.191800 0.651250 0.000000
v 0.136300 0.771000 0.000000
v 0.036050 0.864750 0.000000
v -0.094700 0.896000 0.000000
v -0.331700 0.896000 0.000000
v -0.331700 0.124000 0.000000
v -0.081700 1.013000 0.100000
v 0.101550 0.976500 0.100000
v 0.243300 0.867000 0.100000
v 0.328800 0.711500 0.100000
v 0.357300 0.521000 0.100000
v 0.328300 0.325000 0.100000
v 0.241300 0.161000 0.100000
v 0.096300 0.040250 0.100000
v -0.088700 0.000000 0.100000
v -0.470700 0.000000 0.100000
v -0.470700 1.013000 0.100000
v -0.094700 0.124000 0.100000
v 0.036550 0.154750 0.100000
v 0.136300 0.247000 0.100000
v 0.191800 0.366750 0.100000
v 0.210300 0.510000 0.100000
v 0.191800 0.651250 0.100000
v 0.136300 0.771000 0.100000
v 0.036050 0.864750 0.100000
v -0.094700 0.896000 0.100000
v -0.331700 0.896000 0.100000
v -0.331700 0.124000 0.100000
vt 0.567000 0.040250
vt 0.382000 0.000000
vt 0.000000 0.000000
vt 0.799000 0.325000
vt 0.712000 0.161000
vt 0.799500 0.711500
vt 0.828000 0.521000
vt 0.572250 0.976500
vt 0.714000 0.867000
vt 0.506750 0.864750
vt 0.389000 1.013000
vt 0.376000 0.896000
vt 0.139000 0.896000
vt 0.607000 0.771000
vt 0.000000 1.013000
vt 0.662500 0.651250
vt 0.139000 0.124000
vt 0.681000 0.510000
vt 0.662500 0.366750
vt 0.376000 0.124000
vt 0.507250 0.154750
vt 0.607000 0.247000
vt 1.013000 1.000000
vt 0.000000 1.000000
vt 1.013000 0.900000
vt 0.000000 0.900000
vt 0.382000 1.000000
vt 0.382000 0.900000
vt 0.040250 1.000000
vt 0.040250 0.900000
vt 0.161000 1.000000
vt 0.161000 0.900000
vt 0.325000 1.000000
vt 0.325000 0.900000
vt 0.521000 1.000000
vt 0.521000 0.900000
vt 0.711500 1.000000
vt 0.711500 0.900000
vt 0.867000 1.000000
vt 0.867000 0.900000
vt 0.976500 1.000000
vt 0.976500 0.900000
vt 0.389000 1.000000
vt 0.389000 0.900000
vt 0.124000 1.000000
vt 0.896000 1.000000
vt 0.124000 0.900000
vt 0.896000 0.900000
vt 0.139000 1.000000
vt 0.376000 1.000000
vt 0.139000 0.900000
vt 0.376000 0.900000
vt 0.864750 1.000000
vt 0.864750 0.900000
vt 0.771000 1.000000
vt 0.771000 0.900000
vt 0.651250 1.000000
vt 0.651250 0.900000
vt 0.510000 1.000000
vt 0.510000 0.900000
vt 0.366750 1.000000
vt 0.366750 0.900000
vt 0.247000 1.000000
vt 0.247000 0.900000
vt 0.154750 1.000000
vt 0.154750 0.900000
vn 0.000000 0.000000 -1.000000
vn 0.000000 0.000000 1.000000
vn -1.000000 0.000000 0.000000
vn 0.000000 -1.000000 0.000000
vn 0.071200 -0.997500 -0.000000
vn 0.142400 -0.989800 0.000000
vn 0.364300 -0.931300 -0.000000
vn 0.510500 -0.859900 0.000000
vn 0.733300 -0.679900 0.000000
vn 0.815900 -0.578200 0.000000
vn 0.930600 -0.365900 0.000000
vn 0.966400 -0.257100 -0.000000
vn 0.998800 -0.048700 0.000000
vn 0.998700 0.050300 -0.000000
vn 0.964800 0.262900 -0.000000
vn 0.926700 0.375700 0.000000
vn 0.802900 0.596100 0.000000
vn 0.712900 0.701300 0.000000
vn 0.484100 0.875000 0.000000
vn 0.342100 0.939700 -0.000000
vn 0.130800 0.991400 0.000000
vn 0.065400 0.997900 -0.000000
vn 0.000000 1.000000 0.000000
vn 1.000000 0.000000 0.000000
vn -0.078000 -0.997000 0.000000
vn -0.155900 -0.987800 0.000000
vn -0.394300 -0.919000 0.000000
vn -0.549000 -0.835800 0.000000
vn -0.770400 -0.637500 0.000000
vn -0.846400 -0.532500 0.000000
vn -0.945000 -0.326900 0.000000
vn -0.973400 -0.229100 0.000000
vn -0.999000 -0.044200 0.000000
vn -0.999100 0.042400 0.000000
vn -0.973700 0.227900 0.000000
vn -0.945200 0.326400 0.000000
vn -0.845500 0.534000 0.000000
vn -0.768000 0.640400 0.000000
vn -0.544700 0.838600 0.000000
vn -0.389900 0.920900 0.000000
vn -0.153000 0.988200 0.000000
vn -0.076500 0.997100 0.000000
usemtl 63ba3b
s 1
f 8/1/1 9/2/1 10/3/1
f 6/4/1 7/5/1 8/1/1
f 4/6/1 5/7/1 6/4/1
f 2/8/1 3/9/1 4/6/1
f 19/10/1 1/11/1 2/8/1
f 1/11/1 19/10/1 20/12/1
f 4/6/1 6/4/1 8/1/1
f 19/10/1 2/8/1 4/6/1
f 1/11/1 20/12/1 21/13/1
f 18/14/1 19/10/1 4/6/1
f 11/15/1 1/11/1 21/13/1
f 17/16/1 18/14/1 4/6/1
f 11/15/1 21/13/1 22/17/1
f 16/18/1 17/16/1 4/6/1
f 10/3/1 11/15/1 22/17/1
f 15/19/1 16/18/1 4/6/1
f 10/3/1 22/17/1 12/20/1
f 15/19/1 4/6/1 8/1/1
f 10/3/1 12/20/1 13/21/1
f 14/22/1 15/19/1 8/1/1
f 8/1/1 10/3/1 13/21/1
f 13/21/1 14/22/1 8/1/1
f 32/3/2 31/2/2 30/1/2
f 30/1/2 29/5/2 28/4/2
f 28/4/2 27/7/2 26/6/2
f 26/6/2 25/9/2 24/8/2
f 24/8/2 23/11/2 41/10/2
f 42/12/2 41/10/2 23/11/2
f 30/1/2 28/4/2 26/6/2
f 26/6/2 24/8/2 41/10/2
f 43/13/2 42/12/2 23/11/2
f 26/6/2 41/10/2 40/14/2
f 43/13/2 23/11/2 33/15/2
f 26/6/2 40/14/2 39/16/2
f 44/17/2 43/13/2 33/15/2
f 26/6/2 39/16/2 38/18/2
f 44/17/2 33/15/2 32/3/2
f 26/6/2 38/18/2 37/19/2
f 34/20/2 44/17/2 32/3/2
f 30/1/2 26/6/2 37/19/2
f 35/21/2 34/20/2 32/3/2
f 30/1/2 37/19/2 36/22/2
f 35/21/2 32/3/2 30/1/2
f 30/1/2 36/22/2 35/21/2
f 11/23/3 10/24/3 33/25/3
f 10/24/3 32/26/3 33/25/3
f 10/24/4 9/27/5 32/26/4
f 9/27/5 31/28/6 32/26/4
f 9/24/5 8/29/7 31/26/6
f 8/29/7 30/30/8 31/26/6
f 8/29/7 7/31/9 30/30/8
f 7/31/9 29/32/10 30/30/8
f 7/31/9 6/33/11 29/32/10
f 6/33/11 28/34/12 29/32/10
f 6/33/11 5/35/13 28/34/12
f 5/35/13 27/36/14 28/34/12
f 5/35/13 4/37/15 27/36/14
f 4/37/15 26/38/16 27/36/14
f 4/37/15 3/39/17 26/38/16
f 3/39/17 25/40/18 26/38/16
f 3/39/17 2/41/19 25/40/18
f 2/41/19 24/42/20 25/40/18
f 2/41/19 1/23/21 24/42/20
f 1/23/21 23/25/22 24/42/20
f 1/43/21 11/24/23 23/44/22
f 11/24/23 33/26/23 23/44/22
f 22/45/24 21/46/24 44/47/24
f 21/46/24 43/48/24 44/47/24
f 21/49/4 20/50/25 43/51/4
f 20/50/25 42/52/26 43/51/4
f 20/46/25 19/53/27 42/48/26
f 19/53/27 41/54/28 42/48/26
f 19/53/27 18/55/29 41/54/28
f 18/55/29 40/56/30 41/54/28
f 18/55/29 17/57/31 40/56/30
f 17/57/31 39/58/32 40/56/30
f 17/57/31 16/59/33 39/58/32
f 16/59/33 38/60/34 39/58/32
f 16/59/33 15/61/35 38/60/34
f 15/61/35 37/62/36 38/60/34
f 15/61/35 14/63/37 37/62/36
f 14/63/37 36/64/38 37/62/36
f 14/63/37 13/65/39 36/64/38
f 13/65/39 35/66/40 36/64/38
f 13/65/39 12/45/41 35/66/40
f 12/45/41 34/47/42 35/66/40
f 12/50/41 22/49/23 34/52/42
f 22/49/23 44/51/23 34/52/42
