# Blender v2.74 (sub 0) OBJ File: ''
# www.blender.org
mtllib letras.mtl
o U
v 0.325300 0.393000 0.000000
v 0.296550 0.227500 0.000000
v 0.210300 0.093000 0.000000
v 0.079050 0.004500 0.000000
v -0.084700 -0.025000 0.000000
v -0.244950 0.005000 0.000000
v -0.369700 0.095000 0.000000
v -0.445450 0.227500 0.000000
v -0.470700 0.393000 0.000000
v -0.470700 1.013000 0.000000
v -0.332700 1.013000 0.000000
v -0.332700 0.391000 0.000000
v -0.316200 0.280500 0.000000
v -0.266700 0.191000 0.000000
v -0.183200 0.128000 0.000000
v -0.076700 0.107000 0.000000
v 0.030300 0.128000 0.000000
v 0.115300 0.191000 0.000000
v 0.167800 0.280500 0.000000
v 0.185300 0.391000 0.000000
v 0.185300 1.013000 0.000000
v 0.325300 1.013000 0.000000
v 0.325300 0.393000 0.100000
v 0.296550 0.227500 0.100000
v 0.210300 0.093000 0.100000
v 0.079050 0.004500 0.100000
v -0.084700 -0.025000 0.100000
v -0.244950 0.005000 0.100000
v -0.369700 0.095000 0.100000
v -0.445450 0.227500 0.100000
v -0.470700 0.393000 0.100000
v -0.470700 1.013000 0.100000
v -0.332700 1.013000 0.100000
v -0.332700 0.391000 0.100000
v -0.316200 0.280500 0.100000
v -0.266700 0.191000 0.100000
v -0.183200 0.128000 0.100000
v -0.076700 0.107000 0.100000
v 0.030300 0.128000 0.100000
v 0.115300 0.191000 0.100000
v 0.167800 0.280500 0.100000
v 0.185300 0.391000 0.100000
v 0.185300 1.013000 0.100000
v 0.325300 1.013000 0.100000
vt 0.656000 1.013000
vt 0.796000 1.013000
vt 0.796000 0.393000
vt 0.000000 1.013000
vt 0.138000 1.013000
vt 0.138000 0.391000
vt 0.025250 0.227500
vt 0.000000 0.393000
vt 0.225750 0.005000
vt 0.101000 0.095000
vt 0.549750 0.004500
vt 0.386000 -0.025000
vt 0.767250 0.227500
vt 0.681000 0.093000
vt 0.154500 0.280500
vt 0.656000 0.391000
vt 0.638500 0.280500
vt 0.204000 0.191000
vt 0.287500 0.128000
vt 0.586000 0.191000
vt 0.501000 0.128000
vt 0.394000 0.107000
vt 0.796000 1.000000
vt 0.656000 1.000000
vt 0.796000 0.900000
vt 0.656000 0.900000
vt 1.013000 1.000000
vt 0.391000 1.000000
vt 1.013000 0.900000
vt 0.391000 0.900000
vt 0.280500 1.000000
vt 0.280500 0.900000
vt 0.191000 1.000000
vt 0.191000 0.900000
vt 0.128000 1.000000
vt 0.128000 0.900000
vt 0.107000 1.000000
vt 0.107000 0.900000
vt 0.138000 1.000000
vt 0.000000 1.000000
vt 0.138000 0.900000
vt 0.000000 0.900000
vt 0.393000 1.000000
vt 0.393000 0.900000
vt 0.227500 1.000000
vt 0.227500 0.900000
vt 0.095000 1.000000
vt 0.095000 0.900000
vt 0.005000 1.000000
vt 0.005000 0.900000
vt -0.025000 1.000000
vt -0.025000 0.900000
vt 0.004500 1.000000
vt 0.004500 0.900000
vt 0.093000 1.000000
vt 0.093000 0.900000
vn 0.000000 0.000000 -1.000000
vn 0.000000 0.000000 1.000000
vn 0.000000 1.000000 0.000000
vn -1.000000 0.000000 0.000000
vn -0.998600 0.052300 0.000000
vn -0.994500 0.104500 0.000000
vn -0.960800 0.277200 0.000000
vn -0.918400 0.395600 0.000000
vn -0.787600 0.616200 0.000000
vn -0.697000 0.717100 0.000000
vn -0.471500 0.881900 0.000000
vn -0.334200 0.942500 0.000000
vn -0.065000 0.997900 0.000000
vn 0.065900 0.997800 0.000000
vn 0.337300 0.941400 0.000000
vn 0.476700 0.879000 0.000000
vn 0.707000 0.707200 0.000000
vn 0.799700 0.600400 0.000000
vn 0.926100 0.377200 0.000000
vn 0.964700 0.263500 0.000000
vn 0.995100 0.098700 0.000000
vn 0.998800 0.049300 0.000000
vn 1.000000 0.000000 0.000000
vn -0.998700 -0.050400 0.000000
vn -0.994900 -0.100800 -0.000000
vn -0.962800 -0.270100 0.000000
vn -0.922100 -0.386900 -0.000100
vn -0.789700 -0.613500 0.000000
vn -0.693400 -0.720600 -0.000000
vn -0.461300 -0.887300 -0.000000
vn -0.324600 -0.945800 0.000000
vn -0.064500 -0.997900 0.000000
vn 0.057700 -0.998300 0.000000
vn 0.310400 -0.950600 -0.000000
vn 0.440200 -0.897900 0.000000
vn 0.665500 -0.746400 0.000000
vn 0.761500 -0.648100 -0.000000
vn 0.905500 -0.424400 -0.000000
vn 0.954200 -0.299300 0.000000
vn 0.993400 -0.114500 -0.000000
vn 0.998400 -0.057200 0.000000
usemtl 63ba3b
s 1
f 21/1/1 22/2/1 1/3/1
f 10/4/1 11/5/1 12/6/1
f 8/7/1 9/8/1 10/4/1
f 6/9/1 7/10/1 8/7/1
f 4/11/1 5/12/1 6/9/1
f 2/13/1 3/14/1 4/11/1
f 21/1/1 1/3/1 2/13/1
f 10/4/1 12/6/1 13/15/1
f 4/11/1 6/9/1 8/7/1
f 20/16/1 21/1/1 2/13/1
f 8/7/1 10/4/1 13/15/1
f 19/17/1 20/16/1 2/13/1
f 8/7/1 13/15/1 14/18/1
f 19/17/1 2/13/1 4/11/1
f 8/7/1 14/18/1 15/19/1
f 18/20/1 19/17/1 4/11/1
f 4/11/1 8/7/1 15/19/1
f 17/21/1 18/20/1 4/11/1
f 4/11/1 15/19/1 16/22/1
f 16/22/1 17/21/1 4/11/1
f 23/3/2 44/2/2 43/1/2
f 34/6/2 33/5/2 32/4/2
f 32/4/2 31/8/2 30/7/2
f 30/7/2 29/10/2 28/9/2
f 28/9/2 27/12/2 26/11/2
f 26/11/2 25/14/2 24/13/2
f 24/13/2 23/3/2 43/1/2
f 35/15/2 34/6/2 32/4/2
f 30/7/2 28/9/2 26/11/2
f 24/13/2 43/1/2 42/16/2
f 35/15/2 32/4/2 30/7/2
f 24/13/2 42/16/2 41/17/2
f 36/18/2 35/15/2 30/7/2
f 26/11/2 24/13/2 41/17/2
f 37/19/2 36/18/2 30/7/2
f 26/11/2 41/17/2 40/20/2
f 37/19/2 30/7/2 26/11/2
f 26/11/2 40/20/2 39/21/2
f 38/22/2 37/19/2 26/11/2
f 26/11/2 39/21/2 38/22/2
f 22/23/3 21/24/3 44/25/3
f 21/24/3 43/26/3 44/25/3
f 21/27/4 20/28/5 43/29/4
f 20/28/5 42/30/6 43/29/4
f 20/28/5 19/31/7 42/30/6
f 19/31/7 41/32/8 42/30/6
f 19/31/7 18/33/9 41/32/8
f 18/33/9 40/34/10 41/32/8
f 18/33/9 17/35/11 40/34/10
f 17/35/11 39/36/12 40/34/10
f 17/35/11 16/37/13 39/36/12
f 16/37/13 38/38/14 39/36/12
f 16/37/13 15/35/15 38/38/14
f 15/35/15 37/36/16 38/38/14
f 15/35/15 14/33/17 37/36/16
f 14/33/17 36/34/18 37/36/16
f 14/33/17 13/31/19 36/34/18
f 13/31/19 35/32/20 36/34/18
f 13/31/19 12/28/21 35/32/20
f 12/28/21 34/30/22 35/32/20
f 12/28/21 11/27/23 34/30/22
f 11/27/23 33/29/23 34/30/22
f 11/39/3 10/40/3 33/41/3
f 10/40/3 32/42/3 33/41/3
f 10/27/4 9/43/24 32/29/4
f 9/43/24 31/44/25 32/29/4
f 9/43/24 8/45/26 31/44/25
f 8/45/26 30/46/27 31/44/25
f 8/45/26 7/47/28 30/46/27
f 7/47/28 29/48/29 30/46/27
f 7/47/28 6/49/30 29/48/29
f 6/49/30 28/50/31 29/48/29
f 6/49/30 5/51/32 28/50/31
f 5/51/32 27/52/33 28/50/31
f 5/51/32 4/53/34 27/52/33
f 4/53/34 26/54/35 27/52/33
f 4/53/34 3/55/36 26/54/35
f 3/55/36 25/56/37 26/54/35
f 3/55/36 2/45/38 25/56/37
f 2/45/38 24/46/39 25/56/37
f 2/45/38 1/43/40 24/46/39
f 1/43/40 23/44/41 24/46/39
f 1/43/40 22/27/23 23/44/41
f 22/27/23 44/29/23 23/44/41
