# Blender v2.74 (sub 0) OBJ File: ''
# www.blender.org
mtllib letras.mtl
o O
v 0.014300 1.041000 0.000000
v 0.210050 1.001250 0.000000
v 0.363300 0.882000 0.000000
v 0.456300 0.715500 0.000000
v 0.487300 0.512000 0.000000
v 0.456300 0.305500 0.000000
v 0.363300 0.136000 0.000000
v 0.209050 0.014500 0.000000
v 0.010300 -0.026000 0.000000
v -0.188450 0.013000 0.000000
v -0.344700 0.130000 0.000000
v -0.439200 0.298000 0.000000
v -0.470700 0.504000 0.000000
v -0.438950 0.710000 0.000000
v -0.343700 0.880000 0.000000
v -0.186200 1.000750 0.000000
v 0.009300 0.098000 0.000000
v 0.151050 0.129750 0.000000
v 0.260300 0.225000 0.000000
v 0.323300 0.352250 0.000000
v 0.344300 0.504000 0.000000
v 0.323800 0.656250 0.000000
v 0.262300 0.783000 0.000000
v 0.152550 0.879750 0.000000
v 0.009300 0.912000 0.000000
v -0.133700 0.880000 0.000000
v -0.244700 0.784000 0.000000
v -0.307700 0.657000 0.000000
v -0.328700 0.504000 0.000000
v -0.307700 0.351500 0.000000
v -0.244700 0.224000 0.000000
v -0.134700 0.129500 0.000000
v 0.014300 1.041000 0.100000
v 0.210050 1.001250 0.100000
v 0.363300 0.882000 0.100000
v 0.456300 0.715500 0.100000
v 0.487300 0.512000 0.100000
v 0.456300 0.305500 0.100000
v 0.363300 0.136000 0.100000
v 0.209050 0.014500 0.100000
v 0.010300 -0.026000 0.100000
v -0.188450 0.013000 0.100000
v -0.344700 0.130000 0.100000
v -0.439200 0.298000 0.100000
v -0.470700 0.504000 0.100000
v -0.438950 0.710000 0.100000
v -0.343700 0.880000 0.100000
v -0.186200 1.000750 0.100000
v 0.009300 0.098000 0.100000
v 0.151050 0.129750 0.100000
v 0.260300 0.225000 0.100000
v 0.323300 0.352250 0.100000
v 0.344300 0.504000 0.100000
v 0.323800 0.656250 0.100000
v 0.262300 0.783000 0.100000
v 0.152550 0.879750 0.100000
v 0.009300 0.912000 0.100000
v -0.133700 0.880000 0.100000
v -0.244700 0.784000 0.100000
v -0.307700 0.657000 0.100000
v -0.328700 0.504000 0.100000
v -0.307700 0.351500 0.100000
v -0.244700 0.224000 0.100000
v -0.134700 0.129500 0.100000
vt 0.127000 0.880000
vt 0.284500 1.000750
vt 0.485000 1.041000
vt 0.000000 0.504000
vt 0.031750 0.710000
vt 0.126000 0.130000
vt 0.031500 0.298000
vt 0.481000 -0.026000
vt 0.282250 0.013000
vt 0.834000 0.136000
vt 0.679750 0.014500
vt 0.958000 0.512000
vt 0.927000 0.305500
vt 0.834000 0.882000
vt 0.927000 0.715500
vt 0.680750 1.001250
vt 0.733000 0.783000
vt 0.623250 0.879750
vt 0.480000 0.912000
vt 0.794500 0.656250
vt 0.337000 0.880000
vt 0.815000 0.504000
vt 0.226000 0.784000
vt 0.794000 0.352250
vt 0.163000 0.657000
vt 0.731000 0.225000
vt 0.142000 0.504000
vt 0.621750 0.129750
vt 0.163000 0.351500
vt 0.480000 0.098000
vt 0.226000 0.224000
vt 0.336000 0.129500
vt 1.000750 1.000000
vt 0.880000 1.000000
vt 1.000750 0.900000
vt 0.880000 0.900000
vt 0.710000 1.000000
vt 0.710000 0.900000
vt 0.504000 1.000000
vt 0.504000 0.900000
vt 0.298000 1.000000
vt 0.298000 0.900000
vt 0.130000 1.000000
vt 0.130000 0.900000
vt 0.013000 1.000000
vt 0.013000 0.900000
vt -0.026000 1.000000
vt -0.026000 0.900000
vt 0.014500 1.000000
vt 0.014500 0.900000
vt 0.136000 1.000000
vt 0.136000 0.900000
vt 0.305500 1.000000
vt 0.305500 0.900000
vt 0.512000 1.000000
vt 0.512000 0.900000
vt 0.715500 1.000000
vt 0.715500 0.900000
vt 0.882000 1.000000
vt 0.882000 0.900000
vt 1.001250 1.000000
vt 1.001250 0.900000
vt 1.041000 1.000000
vt 1.041000 0.900000
vt 0.129500 1.000000
vt 0.224000 1.000000
vt 0.129500 0.900000
vt 0.224000 0.900000
vt 0.351500 1.000000
vt 0.351500 0.900000
vt 0.657000 1.000000
vt 0.657000 0.900000
vt 0.784000 1.000000
vt 0.784000 0.900000
vt 0.912000 1.000000
vt 0.912000 0.900000
vt 0.879750 1.000000
vt 0.879750 0.900000
vt 0.783000 1.000000
vt 0.783000 0.900000
vt 0.656250 1.000000
vt 0.656250 0.900000
vt 0.352250 1.000000
vt 0.352250 0.900000
vt 0.225000 1.000000
vt 0.225000 0.900000
vt 0.129750 1.000000
vt 0.129750 0.900000
vt 0.098000 1.000000
vt 0.098000 0.900000
vn 0.000000 0.000000 -1.000000
vn 0.000000 0.000000 1.000000
vn -0.341900 0.939700 -0.000000
vn -0.709300 0.704900 0.000000
vn -0.482300 0.876000 -0.000000
vn -0.799000 0.601400 0.000000
vn -0.924100 0.382000 -0.000000
vn -0.963300 0.268300 0.000000
vn -0.998700 0.051700 -0.000000
vn -0.998700 -0.050500 0.000000
vn -0.963400 -0.268000 -0.000000
vn -0.923900 -0.382700 0.000000
vn -0.796000 -0.605200 -0.000000
vn -0.703600 -0.710600 -0.000100
vn -0.474300 -0.880400 -0.000000
vn -0.335600 -0.942000 -0.000000
vn -0.062900 -0.998000 -0.000000
vn 0.070100 -0.997500 -0.000000
vn 0.347700 -0.937600 0.000000
vn 0.490900 -0.871200 0.000000
vn 0.717600 -0.696500 -0.000000
vn 0.805100 -0.593100 0.000000
vn 0.926900 -0.375300 0.000000
vn 0.964800 -0.262900 -0.000000
vn 0.998800 -0.049300 0.000000
vn 0.998700 0.051400 -0.000000
vn 0.963800 0.266800 -0.000000
vn 0.924700 0.380700 0.000000
vn 0.800900 0.598800 -0.000000
vn 0.713100 0.701100 0.000000
vn 0.487200 0.873300 -0.000000
vn 0.345500 0.938400 0.000000
vn 0.068300 0.997700 -0.000000
vn -0.066000 0.997800 -0.000000
vn 0.369700 0.929200 0.000000
vn 0.746600 0.665200 0.000000
vn 0.519700 0.854400 0.000000
vn 0.829700 0.558200 0.000000
vn 0.938700 0.344700 0.000000
vn 0.970400 0.241400 0.000000
vn 0.998900 0.046000 0.000000
vn 0.999000 -0.045600 0.000000
vn 0.970400 -0.241600 0.000000
vn 0.938400 -0.345600 0.000000
vn 0.829800 -0.558100 0.000000
vn 0.747800 -0.663900 0.000000
vn 0.522900 -0.852400 0.000000
vn 0.373700 -0.927600 0.000000
vn 0.073900 -0.997300 0.000000
vn -0.075200 -0.997200 0.000000
vn -0.377300 -0.926100 0.000000
vn -0.528700 -0.848800 0.000000
vn -0.753900 -0.657000 0.000000
vn -0.834700 -0.550600 0.000000
vn -0.940700 -0.339300 0.000000
vn -0.971500 -0.237100 0.000000
vn -0.999000 -0.043600 0.000000
vn -0.998900 0.047300 0.000000
vn -0.970300 0.242100 0.000000
vn -0.938400 0.345500 0.000000
vn -0.830800 0.556600 0.000000
vn -0.749700 0.661800 0.000000
vn -0.525300 0.850900 0.000000
vn -0.375000 0.927000 0.000000
vn -0.076100 0.997100 0.000000
vn 0.071100 0.997500 0.000000
usemtl 63ba3b
s 1
f 15/1/1 16/2/1 1/3/1
f 13/4/1 14/5/1 15/1/1
f 11/6/1 12/7/1 13/4/1
f 9/8/1 10/9/1 11/6/1
f 7/10/1 8/11/1 9/8/1
f 5/12/1 6/13/1 7/10/1
f 3/14/1 4/15/1 5/12/1
f 1/3/1 2/16/1 3/14/1
f 1/3/1 23/17/1 24/18/1
f 11/6/1 13/4/1 15/1/1
f 3/14/1 5/12/1 7/10/1
f 23/17/1 1/3/1 3/14/1
f 1/3/1 24/18/1 25/19/1
f 22/20/1 23/17/1 3/14/1
f 1/3/1 25/19/1 26/21/1
f 21/22/1 22/20/1 3/14/1
f 1/3/1 26/21/1 27/23/1
f 21/22/1 3/14/1 7/10/1
f 15/1/1 1/3/1 27/23/1
f 20/24/1 21/22/1 7/10/1
f 15/1/1 27/23/1 28/25/1
f 19/26/1 20/24/1 7/10/1
f 15/1/1 28/25/1 29/27/1
f 19/26/1 7/10/1 9/8/1
f 11/6/1 15/1/1 29/27/1
f 18/28/1 19/26/1 9/8/1
f 11/6/1 29/27/1 30/29/1
f 17/30/1 18/28/1 9/8/1
f 11/6/1 30/29/1 31/31/1
f 17/30/1 9/8/1 11/6/1
f 11/6/1 31/31/1 32/32/1
f 32/32/1 17/30/1 11/6/1
f 33/3/2 48/2/2 47/1/2
f 47/1/2 46/5/2 45/4/2
f 45/4/2 44/7/2 43/6/2
f 43/6/2 42/9/2 41/8/2
f 41/8/2 40/11/2 39/10/2
f 39/10/2 38/13/2 37/12/2
f 37/12/2 36/15/2 35/14/2
f 35/14/2 34/16/2 33/3/2
f 56/18/2 55/17/2 33/3/2
f 47/1/2 45/4/2 43/6/2
f 39/10/2 37/12/2 35/14/2
f 35/14/2 33/3/2 55/17/2
f 57/19/2 56/18/2 33/3/2
f 35/14/2 55/17/2 54/20/2
f 58/21/2 57/19/2 33/3/2
f 35/14/2 54/20/2 53/22/2
f 59/23/2 58/21/2 33/3/2
f 39/10/2 35/14/2 53/22/2
f 59/23/2 33/3/2 47/1/2
f 39/10/2 53/22/2 52/24/2
f 60/25/2 59/23/2 47/1/2
f 39/10/2 52/24/2 51/26/2
f 61/27/2 60/25/2 47/1/2
f 41/8/2 39/10/2 51/26/2
f 61/27/2 47/1/2 43/6/2
f 41/8/2 51/26/2 50/28/2
f 62/29/2 61/27/2 43/6/2
f 41/8/2 50/28/2 49/30/2
f 63/31/2 62/29/2 43/6/2
f 43/6/2 41/8/2 49/30/2
f 64/32/2 63/31/2 43/6/2
f 43/6/2 49/30/2 64/32/2
f 16/33/3 15/34/4 48/35/5
f 15/34/4 47/36/6 48/35/5
f 15/34/4 14/37/7 47/36/6
f 14/37/7 46/38/8 47/36/6
f 14/37/7 13/39/9 46/38/8
f 13/39/9 45/40/10 46/38/8
f 13/39/9 12/41/11 45/40/10
f 12/41/11 44/42/12 45/40/10
f 12/41/11 11/43/13 44/42/12
f 11/43/13 43/44/14 44/42/12
f 11/43/13 10/45/15 43/44/14
f 10/45/15 42/46/16 43/44/14
f 10/45/15 9/47/17 42/46/16
f 9/47/17 41/48/18 42/46/16
f 9/47/17 8/49/19 41/48/18
f 8/49/19 40/50/20 41/48/18
f 8/49/19 7/51/21 40/50/20
f 7/51/21 39/52/22 40/50/20
f 7/51/21 6/53/23 39/52/22
f 6/53/23 38/54/24 39/52/22
f 6/53/23 5/55/25 38/54/24
f 5/55/25 37/56/26 38/54/24
f 5/55/25 4/57/27 37/56/26
f 4/57/27 36/58/28 37/56/26
f 4/57/27 3/59/29 36/58/28
f 3/59/29 35/60/30 36/58/28
f 3/59/29 2/61/31 35/60/30
f 2/61/31 34/62/32 35/60/30
f 2/61/31 1/63/33 34/62/32
f 1/63/33 33/64/34 34/62/32
f 1/63/33 16/33/3 33/64/34
f 16/33/3 48/35/5 33/64/34
f 32/65/35 31/66/36 64/67/37
f 31/66/36 63/68/38 64/67/37
f 31/66/36 30/69/39 63/68/38
f 30/69/39 62/70/40 63/68/38
f 30/69/39 29/39/41 62/70/40
f 29/39/41 61/40/42 62/70/40
f 29/39/41 28/71/43 61/40/42
f 28/71/43 60/72/44 61/40/42
f 28/71/43 27/73/45 60/72/44
f 27/73/45 59/74/46 60/72/44
f 27/73/45 26/34/47 59/74/46
f 26/34/47 58/36/48 59/74/46
f 26/34/47 25/75/49 58/36/48
f 25/75/49 57/76/50 58/36/48
f 25/75/49 24/77/51 57/76/50
f 24/77/51 56/78/52 57/76/50
f 24/77/51 23/79/53 56/78/52
f 23/79/53 55/80/54 56/78/52
f 23/79/53 22/81/55 55/80/54
f 22/81/55 54/82/56 55/80/54
f 22/81/55 21/39/57 54/82/56
f 21/39/57 53/40/58 54/82/56
f 21/39/57 20/83/59 53/40/58
f 20/83/59 52/84/60 53/40/58
f 20/83/59 19/85/61 52/84/60
f 19/85/61 51/86/62 52/84/60
f 19/85/61 18/87/63 51/86/62
f 18/87/63 50/88/64 51/86/62
f 18/87/63 17/89/65 50/88/64
f 17/89/65 49/90/66 50/88/64
f 17/89/65 32/65/35 49/90/66
f 32/65/35 64/67/37 49/90/66
