# Blender v2.74 (sub 0) OBJ File: ''
# www.blender.org
mtllib letras.mtl
o E
v 0.265300 0.000000 0.000000
v -0.470700 0.000000 0.000000
v -0.470700 1.013000 0.000000
v 0.254300 1.013000 0.000000
v 0.254300 0.889000 0.000000
v -0.331700 0.889000 0.000000
v -0.331700 0.585000 0.000000
v 0.206300 0.585000 0.000000
v 0.206300 0.467000 0.000000
v -0.331700 0.467000 0.000000
v -0.331700 0.125000 0.000000
v 0.265300 0.125000 0.000000
v 0.265300 0.000000 0.100000
v -0.470700 0.000000 0.100000
v -0.470700 1.013000 0.100000
v 0.254300 1.013000 0.100000
v 0.254300 0.889000 0.100000
v -0.331700 0.889000 0.100000
v -0.331700 0.585000 0.100000
v 0.206300 0.585000 0.100000
v 0.206300 0.467000 0.100000
v -0.331700 0.467000 0.100000
v -0.331700 0.125000 0.100000
v 0.265300 0.125000 0.100000
vt 0.139000 0.125000
vt 0.736000 0.125000
vt 0.736000 0.000000
vt 0.677000 0.585000
vt 0.677000 0.467000
vt 0.139000 0.467000
vt 0.725000 1.013000
vt 0.725000 0.889000
vt 0.139000 0.889000
vt 0.000000 0.000000
vt 0.139000 0.585000
vt 0.000000 1.013000
vt 0.736000 1.000000
vt 0.139000 1.000000
vt 0.736000 0.900000
vt 0.139000 0.900000
vt 0.125000 1.000000
vt 0.467000 1.000000
vt 0.125000 0.900000
vt 0.467000 0.900000
vt 0.677000 1.000000
vt 0.677000 0.900000
vt 0.585000 1.000000
vt 0.585000 0.900000
vt 0.889000 1.000000
vt 0.889000 0.900000
vt 0.725000 1.000000
vt 0.725000 0.900000
vt 1.013000 1.000000
vt 1.013000 0.900000
vt 0.000000 1.000000
vt 0.000000 0.900000
vn 0.000000 0.000000 -1.000000
vn 0.000000 0.000000 1.000000
vn 0.000000 1.000000 0.000000
vn 1.000000 0.000000 0.000000
vn 0.000000 -1.000000 0.000000
vn -1.000000 0.000000 0.000000
usemtl 63ba3b
s 1
f 11/1/1 12/2/1 1/3/1
f 8/4/1 9/5/1 10/6/1
f 4/7/1 5/8/1 6/9/1
f 11/1/1 1/3/1 2/10/1
f 7/11/1 8/4/1 10/6/1
f 3/12/1 4/7/1 6/9/1
f 11/1/1 2/10/1 3/12/1
f 3/12/1 6/9/1 7/11/1
f 10/6/1 11/1/1 3/12/1
f 3/12/1 7/11/1 10/6/1
f 13/3/2 24/2/2 23/1/2
f 22/6/2 21/5/2 20/4/2
f 18/9/2 17/8/2 16/7/2
f 14/10/2 13/3/2 23/1/2
f 22/6/2 20/4/2 19/11/2
f 18/9/2 16/7/2 15/12/2
f 15/12/2 14/10/2 23/1/2
f 19/11/2 18/9/2 15/12/2
f 15/12/2 23/1/2 22/6/2
f 22/6/2 19/11/2 15/12/2
f 12/13/3 11/14/3 24/15/3
f 11/14/3 23/16/3 24/15/3
f 11/17/4 10/18/4 23/19/4
f 10/18/4 22/20/4 23/19/4
f 10/14/5 9/21/5 22/16/5
f 9/21/5 21/22/5 22/16/5
f 9/18/4 8/23/4 21/20/4
f 8/23/4 20/24/4 21/20/4
f 8/21/3 7/14/3 20/22/3
f 7/14/3 19/16/3 20/22/3
f 7/23/4 6/25/4 19/24/4
f 6/25/4 18/26/4 19/24/4
f 6/14/5 5/27/5 18/16/5
f 5/27/5 17/28/5 18/16/5
f 5/25/4 4/29/4 17/26/4
f 4/29/4 16/30/4 17/26/4
f 4/27/3 3/31/3 16/28/3
f 3/31/3 15/32/3 16/28/3
f 3/29/6 2/31/6 15/30/6
f 2/31/6 14/32/6 15/30/6
f 2/31/5 1/13/5 14/32/5
f 1/13/5 13/15/5 14/32/5
f 1/31/4 12/17/4 13/32/4
f 12/17/4 24/19/4 13/32/4
