# Blender v2.74 (sub 0) OBJ File: ''
# www.blender.org
mtllib letras.mtl
o M
v 0.483300 0.000000 0.000000
v 0.348300 0.000000 0.000000
v 0.348300 0.869000 0.000000
v 0.066300 0.000000 0.000000
v -0.065700 0.000000 0.000000
v -0.342700 0.866000 0.000000
v -0.342700 0.000000 0.000000
v -0.470700 0.000000 0.000000
v -0.470700 1.013000 0.000000
v -0.270700 1.013000 0.000000
v 0.001300 0.160000 0.000000
v 0.286300 1.013000 0.000000
v 0.483300 1.013000 0.000000
v 0.483300 0.000000 0.100000
v 0.348300 0.000000 0.100000
v 0.348300 0.869000 0.100000
v 0.066300 0.000000 0.100000
v -0.065700 0.000000 0.100000
v -0.342700 0.866000 0.100000
v -0.342700 0.000000 0.100000
v -0.470700 0.000000 0.100000
v -0.470700 1.013000 0.100000
v -0.270700 1.013000 0.100000
v 0.001300 0.160000 0.100000
v 0.286300 1.013000 0.100000
v 0.483300 1.013000 0.100000
vt 0.128000 0.000000
vt 0.000000 0.000000
vt 0.000000 1.013000
vt 0.537000 0.000000
vt 0.405000 0.000000
vt 0.128000 0.866000
vt 0.954000 0.000000
vt 0.819000 0.000000
vt 0.819000 0.869000
vt 0.954000 1.013000
vt 0.200000 1.013000
vt 0.757000 1.013000
vt 0.472000 0.160000
vt 0.954000 1.000000
vt 0.757000 1.000000
vt 0.954000 0.900000
vt 0.757000 0.900000
vt 1.013000 1.000000
vt 0.160000 1.000000
vt 1.013000 0.900000
vt 0.160000 0.900000
vt 0.200000 1.000000
vt 0.000000 1.000000
vt 0.200000 0.900000
vt 0.000000 0.900000
vt 0.128000 1.000000
vt 0.128000 0.900000
vt 0.866000 1.000000
vt 0.866000 0.900000
vt 0.405000 1.000000
vt 0.537000 1.000000
vt 0.405000 0.900000
vt 0.537000 0.900000
vt 0.869000 1.000000
vt 0.869000 0.900000
vt 0.819000 1.000000
vt 0.819000 0.900000
vn 0.000000 0.000000 -1.000000
vn 0.000000 0.000000 1.000000
vn 0.000000 1.000000 0.000000
vn -0.948500 0.316900 0.000000
vn 0.952700 0.303800 0.000000
vn -1.000000 0.000000 0.000000
vn 0.000000 -1.000000 0.000000
vn 1.000000 0.000000 0.000000
vn -0.952500 -0.304700 0.000000
vn 0.951200 -0.308700 0.000000
usemtl 63ba3b
s 1
f 7/1/1 8/2/1 9/3/1
f 4/4/1 5/5/1 6/6/1
f 1/7/1 2/8/1 3/9/1
f 6/6/1 7/1/1 9/3/1
f 13/10/1 1/7/1 3/9/1
f 6/6/1 9/3/1 10/11/1
f 12/12/1 13/10/1 3/9/1
f 6/6/1 10/11/1 11/13/1
f 12/12/1 3/9/1 4/4/1
f 4/4/1 6/6/1 11/13/1
f 11/13/1 12/12/1 4/4/1
f 22/3/2 21/2/2 20/1/2
f 19/6/2 18/5/2 17/4/2
f 16/9/2 15/8/2 14/7/2
f 22/3/2 20/1/2 19/6/2
f 16/9/2 14/7/2 26/10/2
f 23/11/2 22/3/2 19/6/2
f 16/9/2 26/10/2 25/12/2
f 24/13/2 23/11/2 19/6/2
f 17/4/2 16/9/2 25/12/2
f 24/13/2 19/6/2 17/4/2
f 17/4/2 25/12/2 24/13/2
f 13/14/3 12/15/3 26/16/3
f 12/15/3 25/17/3 26/16/3
f 12/18/4 11/19/4 25/20/4
f 11/19/4 24/21/4 25/20/4
f 11/19/5 10/18/5 24/21/5
f 10/18/5 23/20/5 24/21/5
f 10/22/3 9/23/3 23/24/3
f 9/23/3 22/25/3 23/24/3
f 9/18/6 8/23/6 22/20/6
f 8/23/6 21/25/6 22/20/6
f 8/23/7 7/26/7 21/25/7
f 7/26/7 20/27/7 21/25/7
f 7/23/8 6/28/8 20/25/8
f 6/28/8 19/29/8 20/25/8
f 6/28/9 5/23/9 19/29/9
f 5/23/9 18/25/9 19/29/9
f 5/30/7 4/31/7 18/32/7
f 4/31/7 17/33/7 18/32/7
f 4/23/10 3/34/10 17/25/10
f 3/34/10 16/35/10 17/25/10
f 3/34/6 2/23/6 16/35/6
f 2/23/6 15/25/6 16/35/6
f 2/36/7 1/14/7 15/37/7
f 1/14/7 14/16/7 15/37/7
f 1/23/8 13/18/8 14/25/8
f 13/18/8 26/20/8 14/25/8
