# Blender v2.74 (sub 0) OBJ File: ''
# www.blender.org
mtllib letras.mtl
o B
v 0.109300 0.546000 0.000000
v 0.190300 0.521250 0.000000
v 0.253300 0.469000 0.000000
v 0.293800 0.396500 0.000000
v 0.307300 0.311000 0.000000
v 0.281050 0.184000 0.000000
v 0.202300 0.083000 0.000000
v 0.093050 0.020750 0.000000
v -0.038700 0.000000 0.000000
v -0.470700 0.000000 0.000000
v -0.470700 1.013000 0.000000
v -0.059700 1.013000 0.000000
v 0.059800 0.999000 0.000000
v 0.158300 0.957000 0.000000
v 0.235550 0.877250 0.000000
v 0.261300 0.768000 0.000000
v 0.251050 0.696750 0.000000
v 0.220300 0.633000 0.000000
v 0.172050 0.580750 0.000000
v -0.077700 0.899000 0.000000
v -0.331700 0.899000 0.000000
v -0.331700 0.588000 0.000000
v -0.091700 0.588000 0.000000
v -0.014700 0.597000 0.000000
v 0.050300 0.624000 0.000000
v 0.103550 0.675500 0.000000
v 0.121300 0.744000 0.000000
v 0.106050 0.810250 0.000000
v 0.060300 0.859000 0.000000
v -0.004200 0.889000 0.000000
v -0.051700 0.124000 0.000000
v 0.027550 0.135250 0.000000
v 0.095300 0.169000 0.000000
v 0.147050 0.227500 0.000000
v 0.164300 0.303000 0.000000
v 0.145300 0.379250 0.000000
v 0.088300 0.436000 0.000000
v 0.016550 0.466750 0.000000
v -0.068700 0.477000 0.000000
v -0.331700 0.477000 0.000000
v -0.331700 0.124000 0.000000
v 0.109300 0.546000 0.100000
v 0.190300 0.521250 0.100000
v 0.253300 0.469000 0.100000
v 0.293800 0.396500 0.100000
v 0.307300 0.311000 0.100000
v 0.281050 0.184000 0.100000
v 0.202300 0.083000 0.100000
v 0.093050 0.020750 0.100000
v -0.038700 0.000000 0.100000
v -0.470700 0.000000 0.100000
v -0.470700 1.013000 0.100000
v -0.059700 1.013000 0.100000
v 0.059800 0.999000 0.100000
v 0.158300 0.957000 0.100000
v 0.235550 0.877250 0.100000
v 0.261300 0.768000 0.100000
v 0.251050 0.696750 0.100000
v 0.220300 0.633000 0.100000
v 0.172050 0.580750 0.100000
v -0.077700 0.899000 0.100000
v -0.331700 0.899000 0.100000
v -0.331700 0.588000 0.100000
v -0.091700 0.588000 0.100000
v -0.014700 0.597000 0.100000
v 0.050300 0.624000 0.100000
v 0.103550 0.675500 0.100000
v 0.121300 0.744000 0.100000
v 0.106050 0.810250 0.100000
v 0.060300 0.859000 0.100000
v -0.004200 0.889000 0.100000
v -0.051700 0.124000 0.100000
v 0.027550 0.135250 0.100000
v 0.095300 0.169000 0.100000
v 0.147050 0.227500 0.100000
v 0.164300 0.303000 0.100000
v 0.145300 0.379250 0.100000
v 0.088300 0.436000 0.100000
v 0.016550 0.466750 0.100000
v -0.068700 0.477000 0.100000
v -0.331700 0.477000 0.100000
v -0.331700 0.124000 0.100000
vt 0.691000 0.633000
vt 0.642750 0.580750
vt 0.580000 0.546000
vt 0.732000 0.768000
vt 0.721750 0.696750
vt 0.629000 0.957000
vt 0.706250 0.877250
vt 0.411000 1.013000
vt 0.530500 0.999000
vt 0.563750 0.020750
vt 0.432000 0.000000
vt 0.000000 0.000000
vt 0.751750 0.184000
vt 0.673000 0.083000
vt 0.764500 0.396500
vt 0.778000 0.311000
vt 0.661000 0.521250
vt 0.724000 0.469000
vt 0.635000 0.303000
vt 0.616000 0.379250
vt 0.559000 0.436000
vt 0.139000 0.588000
vt 0.379000 0.588000
vt 0.487250 0.466750
vt 0.456000 0.597000
vt 0.402000 0.477000
vt 0.521000 0.624000
vt 0.617750 0.227500
vt 0.139000 0.477000
vt 0.574250 0.675500
vt 0.566000 0.169000
vt 0.592000 0.744000
vt 0.498250 0.135250
vt 0.576750 0.810250
vt 0.419000 0.124000
vt 0.531000 0.859000
vt 0.139000 0.124000
vt 0.466500 0.889000
vt 0.000000 1.013000
vt 0.393000 0.899000
vt 0.139000 0.899000
vt 0.580750 1.000000
vt 0.633000 1.000000
vt 0.580750 0.900000
vt 0.633000 0.900000
vt 0.696750 1.000000
vt 0.696750 0.900000
vt 0.768000 1.000000
vt 0.768000 0.900000
vt 0.877250 1.000000
vt 0.877250 0.900000
vt 0.957000 1.000000
vt 0.957000 0.900000
vt 0.999000 1.000000
vt 0.999000 0.900000
vt 1.013000 1.000000
vt 1.013000 0.900000
vt 0.411000 1.000000
vt 0.000000 1.000000
vt 0.411000 0.900000
vt 0.000000 0.900000
vt 0.432000 1.000000
vt 0.432000 0.900000
vt 0.020750 1.000000
vt 0.020750 0.900000
vt 0.083000 1.000000
vt 0.083000 0.900000
vt 0.184000 1.000000
vt 0.184000 0.900000
vt 0.311000 1.000000
vt 0.311000 0.900000
vt 0.396500 1.000000
vt 0.396500 0.900000
vt 0.469000 1.000000
vt 0.469000 0.900000
vt 0.521250 1.000000
vt 0.521250 0.900000
vt 0.546000 1.000000
vt 0.546000 0.900000
vt 0.889000 1.000000
vt 0.859000 1.000000
vt 0.889000 0.900000
vt 0.859000 0.900000
vt 0.810250 1.000000
vt 0.810250 0.900000
vt 0.744000 1.000000
vt 0.744000 0.900000
vt 0.675500 1.000000
vt 0.675500 0.900000
vt 0.624000 1.000000
vt 0.624000 0.900000
vt 0.597000 1.000000
vt 0.597000 0.900000
vt 0.456000 1.000000
vt 0.379000 1.000000
vt 0.456000 0.900000
vt 0.379000 0.900000
vt 0.139000 1.000000
vt 0.139000 0.900000
vt 0.588000 1.000000
vt 0.899000 1.000000
vt 0.588000 0.900000
vt 0.899000 0.900000
vt 0.393000 1.000000
vt 0.393000 0.900000
vt 0.124000 1.000000
vt 0.477000 1.000000
vt 0.124000 0.900000
vt 0.477000 0.900000
vt 0.402000 1.000000
vt 0.402000 0.900000
vt 0.466750 1.000000
vt 0.466750 0.900000
vt 0.436000 1.000000
vt 0.436000 0.900000
vt 0.379250 1.000000
vt 0.379250 0.900000
vt 0.303000 1.000000
vt 0.303000 0.900000
vt 0.227500 1.000000
vt 0.227500 0.900000
vt 0.169000 1.000000
vt 0.169000 0.900000
vt 0.135250 1.000000
vt 0.135250 0.900000
vt 0.419000 1.000000
vt 0.419000 0.900000
vn 0.000000 0.000000 -1.000000
vn -0.000000 0.000000 1.000000
vn 0.574400 -0.818600 -0.000000
vn 0.797800 -0.603000 -0.000000
vn 0.658700 -0.752400 0.000000
vn 0.853600 -0.520800 0.000000
vn 0.940200 -0.340700 -0.000000
vn 0.970200 -0.242300 -0.000000
vn 0.999800 -0.018700 -0.000000
vn 0.994200 0.107200 0.000000
vn 0.973300 0.229400 0.000000
vn 0.718300 0.695800 0.000000
vn 0.620500 0.784200 -0.000000
vn 0.509800 0.860300 0.000000
vn 0.303000 0.953000 0.000000
vn 0.210300 0.977600 0.000000
vn 0.077700 0.997000 -0.000000
vn 0.038800 0.999200 -0.000000
vn 0.000000 1.000000 0.000000
vn -1.000000 0.000000 0.000000
vn 0.000000 -1.000000 0.000000
vn 0.052000 -0.998600 0.000000
vn 0.104000 -0.994600 0.000000
vn 0.272700 -0.962100 0.000000
vn 0.387500 -0.921900 -0.000000
vn 0.603100 -0.797700 -0.000000
vn 0.702600 -0.711600 0.000000
vn 0.872400 -0.488800 -0.000000
vn 0.937500 -0.348000 -0.000000
vn 0.996500 -0.084100 0.000000
vn 0.999300 0.037000 0.000000
vn 0.962800 0.270300 -0.000000
vn 0.924000 0.382400 0.000000
vn 0.807000 0.590600 -0.000000
vn 0.727600 0.686100 -0.000000
vn 0.532200 0.846600 -0.000000
vn 0.414800 0.909900 0.000000
vn 0.292200 0.956400 0.000000
vn 0.484500 -0.874800 0.000000
vn -0.232800 -0.972500 0.000000
vn -0.532800 -0.846200 0.000000
vn -0.329400 -0.944200 0.000000
vn -0.637000 -0.770900 0.000000
vn -0.729200 -0.684300 0.000000
vn -0.974500 -0.224300 0.000000
vn -0.997700 -0.067700 0.000000
vn -0.995500 0.094900 0.000000
vn -0.968000 0.250800 0.000000
vn -0.695200 0.718800 0.000000
vn -0.600700 0.799500 0.000000
vn -0.495200 0.868800 0.000000
vn -0.297000 0.954900 0.000000
vn -0.207000 0.978300 0.000000
vn -0.077500 0.997000 0.000000
vn -0.038800 0.999200 0.000000
vn 1.000000 0.000000 0.000000
vn -0.045000 -0.999000 0.000000
vn -0.090000 -0.995900 0.000000
vn -0.039900 -0.999200 0.000000
vn -0.079700 -0.996800 0.000000
vn -0.212800 -0.977100 0.000000
vn -0.305200 -0.952300 0.000000
vn -0.505800 -0.862600 0.000000
vn -0.611300 -0.791400 0.000000
vn -0.705600 -0.708700 0.000000
vn -0.970300 -0.241800 0.000000
vn -0.996000 -0.089100 0.000000
vn -0.997600 0.069600 0.000000
vn -0.925100 0.379800 0.000000
vn -0.847600 0.530600 0.000000
vn -0.658700 0.752400 0.000000
vn -0.556000 0.831200 0.000000
vn -0.348100 0.937500 0.000000
vn -0.245100 0.969500 0.000000
vn -0.093900 0.995600 0.000000
vn -0.046900 0.998900 0.000000
usemtl 63ba3b
s 1
f 18/1/1 19/2/1 1/3/1
f 16/4/1 17/5/1 18/1/1
f 14/6/1 15/7/1 16/4/1
f 12/8/1 13/9/1 14/6/1
f 8/10/1 9/11/1 10/12/1
f 6/13/1 7/14/1 8/10/1
f 4/15/1 5/16/1 6/13/1
f 2/17/1 3/18/1 4/15/1
f 35/19/1 36/20/1 2/17/1
f 2/17/1 36/20/1 37/21/1
f 22/22/1 1/3/1 2/17/1
f 1/3/1 22/22/1 23/23/1
f 16/4/1 18/1/1 1/3/1
f 12/8/1 14/6/1 16/4/1
f 6/13/1 8/10/1 10/12/1
f 2/17/1 4/15/1 6/13/1
f 2/17/1 37/21/1 38/24/1
f 1/3/1 23/23/1 24/25/1
f 35/19/1 2/17/1 6/13/1
f 2/17/1 38/24/1 39/26/1
f 1/3/1 24/25/1 25/27/1
f 34/28/1 35/19/1 6/13/1
f 2/17/1 39/26/1 40/29/1
f 1/3/1 25/27/1 26/30/1
f 33/31/1 34/28/1 6/13/1
f 22/22/1 2/17/1 40/29/1
f 1/3/1 26/30/1 27/32/1
f 32/33/1 33/31/1 6/13/1
f 16/4/1 1/3/1 27/32/1
f 32/33/1 6/13/1 10/12/1
f 16/4/1 27/32/1 28/34/1
f 31/35/1 32/33/1 10/12/1
f 16/4/1 28/34/1 29/36/1
f 41/37/1 31/35/1 10/12/1
f 16/4/1 29/36/1 30/38/1
f 41/37/1 10/12/1 11/39/1
f 12/8/1 16/4/1 30/38/1
f 40/29/1 41/37/1 11/39/1
f 12/8/1 30/38/1 20/40/1
f 22/22/1 40/29/1 11/39/1
f 12/8/1 20/40/1 21/41/1
f 21/41/1 22/22/1 11/39/1
f 11/39/1 12/8/1 21/41/1
f 42/3/2 60/2/2 59/1/2
f 59/1/2 58/5/2 57/4/2
f 57/4/2 56/7/2 55/6/2
f 55/6/2 54/9/2 53/8/2
f 51/12/2 50/11/2 49/10/2
f 49/10/2 48/14/2 47/13/2
f 47/13/2 46/16/2 45/15/2
f 45/15/2 44/18/2 43/17/2
f 43/17/2 77/20/2 76/19/2
f 78/21/2 77/20/2 43/17/2
f 43/17/2 42/3/2 63/22/2
f 64/23/2 63/22/2 42/3/2
f 42/3/2 59/1/2 57/4/2
f 57/4/2 55/6/2 53/8/2
f 51/12/2 49/10/2 47/13/2
f 47/13/2 45/15/2 43/17/2
f 79/24/2 78/21/2 43/17/2
f 65/25/2 64/23/2 42/3/2
f 47/13/2 43/17/2 76/19/2
f 80/26/2 79/24/2 43/17/2
f 66/27/2 65/25/2 42/3/2
f 47/13/2 76/19/2 75/28/2
f 81/29/2 80/26/2 43/17/2
f 67/30/2 66/27/2 42/3/2
f 47/13/2 75/28/2 74/31/2
f 81/29/2 43/17/2 63/22/2
f 68/32/2 67/30/2 42/3/2
f 47/13/2 74/31/2 73/33/2
f 68/32/2 42/3/2 57/4/2
f 51/12/2 47/13/2 73/33/2
f 69/34/2 68/32/2 57/4/2
f 51/12/2 73/33/2 72/35/2
f 70/36/2 69/34/2 57/4/2
f 51/12/2 72/35/2 82/37/2
f 71/38/2 70/36/2 57/4/2
f 52/39/2 51/12/2 82/37/2
f 71/38/2 57/4/2 53/8/2
f 52/39/2 82/37/2 81/29/2
f 61/40/2 71/38/2 53/8/2
f 52/39/2 81/29/2 63/22/2
f 62/41/2 61/40/2 53/8/2
f 52/39/2 63/22/2 62/41/2
f 62/41/2 53/8/2 52/39/2
f 19/42/3 18/43/4 60/44/5
f 18/43/4 59/45/6 60/44/5
f 18/43/4 17/46/7 59/45/6
f 17/46/7 58/47/8 59/45/6
f 17/46/7 16/48/9 58/47/8
f 16/48/9 57/49/10 58/47/8
f 16/48/9 15/50/11 57/49/10
f 15/50/11 56/51/11 57/49/10
f 15/50/12 14/52/13 56/51/12
f 14/52/13 55/53/14 56/51/12
f 14/52/13 13/54/15 55/53/14
f 13/54/15 54/55/16 55/53/14
f 13/54/15 12/56/17 54/55/16
f 12/56/17 53/57/18 54/55/16
f 12/58/17 11/59/19 53/60/18
f 11/59/19 52/61/19 53/60/18
f 11/56/20 10/59/20 52/57/20
f 10/59/20 51/61/20 52/57/20
f 10/59/21 9/62/22 51/61/21
f 9/62/22 50/63/23 51/61/21
f 9/59/22 8/64/24 50/61/23
f 8/64/24 49/65/25 50/61/23
f 8/64/24 7/66/26 49/65/25
f 7/66/26 48/67/27 49/65/25
f 7/66/26 6/68/28 48/67/27
f 6/68/28 47/69/29 48/67/27
f 6/68/28 5/70/30 47/69/29
f 5/70/30 46/71/31 47/69/29
f 5/70/30 4/72/32 46/71/31
f 4/72/32 45/73/33 46/71/31
f 4/72/32 3/74/34 45/73/33
f 3/74/34 44/75/35 45/73/33
f 3/74/34 2/76/36 44/75/35
f 2/76/36 43/77/37 44/75/35
f 2/76/36 1/78/38 43/77/37
f 1/78/38 42/79/38 43/77/37
f 1/78/39 19/42/3 42/79/39
f 19/42/3 60/44/5 42/79/39
f 30/80/40 29/81/41 71/82/42
f 29/81/41 70/83/43 71/82/42
f 29/81/41 28/84/44 70/83/43
f 28/84/44 69/85/44 70/83/43
f 28/84/45 27/86/46 69/85/45
f 27/86/46 68/87/47 69/85/45
f 27/86/46 26/88/48 68/87/47
f 26/88/48 67/89/48 68/87/47
f 26/88/49 25/90/50 67/89/49
f 25/90/50 66/91/51 67/89/49
f 25/90/50 24/92/52 66/91/51
f 24/92/52 65/93/53 66/91/51
f 24/94/52 23/95/54 65/96/53
f 23/95/54 64/97/55 65/96/53
f 23/95/54 22/98/19 64/97/55
f 22/98/19 63/99/19 64/97/55
f 22/100/56 21/101/56 63/102/56
f 21/101/56 62/103/56 63/102/56
f 21/98/21 20/104/57 62/99/21
f 20/104/57 61/105/58 62/99/21
f 20/101/57 30/80/40 61/103/58
f 30/80/40 71/82/42 61/103/58
f 41/106/56 40/107/56 82/108/56
f 40/107/56 81/109/56 82/108/56
f 40/98/21 39/110/59 81/99/21
f 39/110/59 80/111/60 81/99/21
f 39/107/59 38/112/61 80/109/60
f 38/112/61 79/113/62 80/109/60
f 38/112/61 37/114/63 79/113/62
f 37/114/63 78/115/64 79/113/62
f 37/114/63 36/116/65 78/115/64
f 36/116/65 77/117/65 78/115/64
f 36/116/66 35/118/67 77/117/66
f 35/118/67 76/119/68 77/117/66
f 35/118/67 34/120/69 76/119/68
f 34/120/69 75/121/70 76/119/68
f 34/120/69 33/122/71 75/121/70
f 33/122/71 74/123/72 75/121/70
f 33/122/71 32/124/73 74/123/72
f 32/124/73 73/125/74 74/123/72
f 32/124/73 31/106/75 73/125/74
f 31/106/75 72/108/76 73/125/74
f 31/126/75 41/98/19 72/127/76
f 41/98/19 82/99/19 72/127/76
