# Blender v2.74 (sub 0) OBJ File: ''
# www.blender.org
mtllib letras.mtl
o J
v 0.117300 0.279000 0.000000
v 0.042050 0.050250 0.000000
v -0.183700 -0.026000 0.000000
v -0.321450 -0.001250 0.000000
v -0.412700 0.073000 0.000000
v -0.456200 0.179000 0.000000
v -0.470700 0.327000 0.000000
v -0.337700 0.327000 0.000000
v -0.330950 0.238250 0.000000
v -0.310700 0.172000 0.000000
v -0.259700 0.115000 0.000000
v -0.182700 0.096000 0.000000
v -0.096700 0.114750 0.000000
v -0.044700 0.171000 0.000000
v -0.027450 0.236250 0.000000
v -0.021700 0.336000 0.000000
v -0.021700 1.013000 0.000000
v 0.117300 1.013000 0.000000
v 0.117300 0.279000 0.100000
v 0.042050 0.050250 0.100000
v -0.183700 -0.026000 0.100000
v -0.321450 -0.001250 0.100000
v -0.412700 0.073000 0.100000
v -0.456200 0.179000 0.100000
v -0.470700 0.327000 0.100000
v -0.337700 0.327000 0.100000
v -0.330950 0.238250 0.100000
v -0.310700 0.172000 0.100000
v -0.259700 0.115000 0.100000
v -0.182700 0.096000 0.100000
v -0.096700 0.114750 0.100000
v -0.044700 0.171000 0.100000
v -0.027450 0.236250 0.100000
v -0.021700 0.336000 0.100000
v -0.021700 1.013000 0.100000
v 0.117300 1.013000 0.100000
vt 0.449000 1.013000
vt 0.588000 1.013000
vt 0.588000 0.279000
vt 0.000000 0.327000
vt 0.133000 0.327000
vt 0.139750 0.238250
vt 0.058000 0.073000
vt 0.014500 0.179000
vt 0.287000 -0.026000
vt 0.149250 -0.001250
vt 0.512750 0.050250
vt 0.449000 0.336000
vt 0.160000 0.172000
vt 0.443250 0.236250
vt 0.211000 0.115000
vt 0.426000 0.171000
vt 0.288000 0.096000
vt 0.374000 0.114750
vt 0.588000 1.000000
vt 0.449000 1.000000
vt 0.588000 0.900000
vt 0.449000 0.900000
vt 1.013000 1.000000
vt 0.336000 1.000000
vt 1.013000 0.900000
vt 0.336000 0.900000
vt 0.236250 1.000000
vt 0.236250 0.900000
vt 0.171000 1.000000
vt 0.171000 0.900000
vt 0.114750 1.000000
vt 0.114750 0.900000
vt 0.096000 1.000000
vt 0.096000 0.900000
vt 0.115000 1.000000
vt 0.115000 0.900000
vt 0.172000 1.000000
vt 0.172000 0.900000
vt 0.238250 1.000000
vt 0.238250 0.900000
vt 0.327000 1.000000
vt 0.327000 0.900000
vt 0.133000 1.000000
vt 0.000000 1.000000
vt 0.133000 0.900000
vt 0.000000 0.900000
vt 0.179000 1.000000
vt 0.179000 0.900000
vt 0.073000 1.000000
vt 0.073000 0.900000
vt -0.001250 1.000000
vt -0.001250 0.900000
vt -0.026000 1.000000
vt -0.026000 0.900000
vt 0.050250 1.000000
vt 0.050250 0.900000
vt 0.279000 1.000000
vt 0.279000 0.900000
vn 0.000000 0.000000 -1.000000
vn 0.000000 0.000000 1.000000
vn 0.000000 1.000000 0.000000
vn -1.000000 0.000000 0.000000
vn -0.999800 0.019200 0.000000
vn -0.999300 0.038400 0.000000
vn -0.992300 0.124100 0.000000
vn -0.981700 0.190400 0.000000
vn -0.913300 0.407400 0.000000
vn -0.833700 0.552200 0.000000
vn -0.734300 0.678800 0.000000
vn -0.213000 0.977000 0.000000
vn -0.063600 0.998000 0.000000
vn 0.090800 0.995900 0.000000
vn 0.239600 0.970900 0.000000
vn 0.745200 0.666800 0.000000
vn 0.832900 0.553400 0.000000
vn 0.904700 0.426000 0.000000
vn 0.975200 0.221400 0.000000
vn 0.988900 0.148800 0.000000
vn 0.997100 0.075800 0.000000
vn -0.995200 -0.097500 0.000000
vn -0.981100 -0.193400 0.000000
vn -0.957500 -0.288300 0.000000
vn -0.850500 -0.526000 -0.000000
vn -0.749700 -0.661800 -0.000000
vn -0.493600 -0.869700 0.000100
vn -0.337800 -0.941200 0.000000
vn -0.011600 -0.999900 -0.000000
vn 0.158800 -0.987300 -0.000000
vn 0.320000 -0.947400 0.000000
vn 0.949900 -0.312500 0.000000
vn 0.977600 -0.210700 -0.000000
vn 0.994400 -0.105300 0.000000
vn 1.000000 0.000000 0.000000
usemtl 63ba3b
s 1
f 17/1/1 18/2/1 1/3/1
f 7/4/1 8/5/1 9/6/1
f 5/7/1 6/8/1 7/4/1
f 3/9/1 4/10/1 5/7/1
f 1/3/1 2/11/1 3/9/1
f 16/12/1 17/1/1 1/3/1
f 7/4/1 9/6/1 10/13/1
f 3/9/1 5/7/1 7/4/1
f 15/14/1 16/12/1 1/3/1
f 7/4/1 10/13/1 11/15/1
f 14/16/1 15/14/1 1/3/1
f 3/9/1 7/4/1 11/15/1
f 14/16/1 1/3/1 3/9/1
f 3/9/1 11/15/1 12/17/1
f 13/18/1 14/16/1 3/9/1
f 3/9/1 12/17/1 13/18/1
f 19/3/2 36/2/2 35/1/2
f 27/6/2 26/5/2 25/4/2
f 25/4/2 24/8/2 23/7/2
f 23/7/2 22/10/2 21/9/2
f 21/9/2 20/11/2 19/3/2
f 19/3/2 35/1/2 34/12/2
f 28/13/2 27/6/2 25/4/2
f 25/4/2 23/7/2 21/9/2
f 19/3/2 34/12/2 33/14/2
f 29/15/2 28/13/2 25/4/2
f 19/3/2 33/14/2 32/16/2
f 29/15/2 25/4/2 21/9/2
f 21/9/2 19/3/2 32/16/2
f 30/17/2 29/15/2 21/9/2
f 21/9/2 32/16/2 31/18/2
f 31/18/2 30/17/2 21/9/2
f 18/19/3 17/20/3 36/21/3
f 17/20/3 35/22/3 36/21/3
f 17/23/4 16/24/5 35/25/4
f 16/24/5 34/26/6 35/25/4
f 16/24/5 15/27/7 34/26/6
f 15/27/7 33/28/8 34/26/6
f 15/27/7 14/29/9 33/28/8
f 14/29/9 32/30/10 33/28/8
f 14/29/9 13/31/11 32/30/10
f 13/31/11 31/32/11 32/30/10
f 13/31/12 12/33/13 31/32/12
f 12/33/13 30/34/14 31/32/12
f 12/33/13 11/35/15 30/34/14
f 11/35/15 29/36/15 30/34/14
f 11/35/16 10/37/17 29/36/16
f 10/37/17 28/38/18 29/36/16
f 10/37/17 9/39/19 28/38/18
f 9/39/19 27/40/20 28/38/18
f 9/39/19 8/41/21 27/40/20
f 8/41/21 26/42/21 27/40/20
f 8/43/3 7/44/3 26/45/3
f 7/44/3 25/46/3 26/45/3
f 7/41/22 6/47/23 25/42/22
f 6/47/23 24/48/24 25/42/22
f 6/47/23 5/49/25 24/48/24
f 5/49/25 23/50/26 24/48/24
f 5/49/25 4/51/27 23/50/26
f 4/51/27 22/52/28 23/50/26
f 4/51/27 3/53/29 22/52/28
f 3/53/29 21/54/30 22/52/28
f 3/53/29 2/55/31 21/54/30
f 2/55/31 20/56/31 21/54/30
f 2/55/32 1/57/33 20/56/32
f 1/57/33 19/58/34 20/56/32
f 1/57/33 18/23/35 19/58/34
f 18/23/35 36/25/35 19/58/34
