# Blender v2.74 (sub 0) OBJ File: ''
# www.blender.org
mtllib letras.mtl
o Z
v 0.308300 0.000000 0.000000
v -0.470700 0.000000 0.000000
v -0.470700 0.113000 0.000000
v 0.150300 0.896000 0.000000
v -0.430700 0.896000 0.000000
v -0.430700 1.013000 0.000000
v 0.308300 1.013000 0.000000
v 0.307300 0.887000 0.000000
v -0.299700 0.124000 0.000000
v 0.308300 0.124000 0.000000
v 0.308300 0.000000 0.100000
v -0.470700 0.000000 0.100000
v -0.470700 0.113000 0.100000
v 0.150300 0.896000 0.100000
v -0.430700 0.896000 0.100000
v -0.430700 1.013000 0.100000
v 0.308300 1.013000 0.100000
v 0.307300 0.887000 0.100000
v -0.299700 0.124000 0.100000
v 0.308300 0.124000 0.100000
vt 0.171000 0.124000
vt 0.779000 0.124000
vt 0.779000 0.000000
vt 0.779000 1.013000
vt 0.778000 0.887000
vt 0.040000 0.896000
vt 0.040000 1.013000
vt 0.000000 0.000000
vt 0.000000 0.113000
vt 0.621000 0.896000
vt 0.779000 1.000000
vt 0.171000 1.000000
vt 0.779000 0.900000
vt 0.171000 0.900000
vt 0.124000 1.000000
vt 0.887000 1.000000
vt 0.124000 0.900000
vt 0.887000 0.900000
vt 1.013000 1.000000
vt 1.013000 0.900000
vt 0.040000 1.000000
vt 0.040000 0.900000
vt 0.896000 1.000000
vt 0.896000 0.900000
vt 0.621000 1.000000
vt 0.621000 0.900000
vt 0.113000 1.000000
vt 0.113000 0.900000
vt 0.000000 1.000000
vt 0.000000 0.900000
vn 0.000000 0.000000 -1.000000
vn 0.000000 0.000000 1.000000
vn 0.000000 1.000000 0.000000
vn 0.782600 -0.622600 0.000000
vn 1.000000 -0.007900 0.000000
vn -1.000000 0.000000 0.000000
vn 0.000000 -1.000000 0.000000
vn -0.783500 0.621400 0.000000
vn 1.000000 0.000000 0.000000
usemtl 63ba3b
s 1
f 9/1/1 10/2/1 1/3/1
f 7/4/1 8/5/1 9/1/1
f 5/6/1 6/7/1 7/4/1
f 2/8/1 3/9/1 4/10/1
f 9/1/1 1/3/1 2/8/1
f 4/10/1 5/6/1 7/4/1
f 9/1/1 2/8/1 4/10/1
f 4/10/1 7/4/1 9/1/1
f 11/3/2 20/2/2 19/1/2
f 19/1/2 18/5/2 17/4/2
f 17/4/2 16/7/2 15/6/2
f 14/10/2 13/9/2 12/8/2
f 12/8/2 11/3/2 19/1/2
f 17/4/2 15/6/2 14/10/2
f 14/10/2 12/8/2 19/1/2
f 19/1/2 17/4/2 14/10/2
f 10/11/3 9/12/3 20/13/3
f 9/12/3 19/14/3 20/13/3
f 9/15/4 8/16/4 19/17/4
f 8/16/4 18/18/4 19/17/4
f 8/16/5 7/19/5 18/18/5
f 7/19/5 17/20/5 18/18/5
f 7/11/3 6/21/3 17/13/3
f 6/21/3 16/22/3 17/13/3
f 6/19/6 5/23/6 16/20/6
f 5/23/6 15/24/6 16/20/6
f 5/21/7 4/25/7 15/22/7
f 4/25/7 14/26/7 15/22/7
f 4/23/8 3/27/8 14/24/8
f 3/27/8 13/28/8 14/24/8
f 3/27/6 2/29/6 13/28/6
f 2/29/6 12/30/6 13/28/6
f 2/29/7 1/11/7 12/30/7
f 1/11/7 11/13/7 12/30/7
f 1/29/9 10/15/9 11/30/9
f 10/15/9 20/17/9 11/30/9
